<svg xmlns="http://www.w3.org/2000/svg" width="16" height="16" fill="none">
  <path
    fill="#545C6B"
    fill-rule="evenodd"
    d="M5.086.833H2.914c-.264 0-.49 0-.678.015a1.527 1.527 0 0 0-.584.148 1.5 1.5 0 0 0-.655.656c-.097.19-.132.386-.148.584a8.95 8.95 0 0 0-.016.678v2.172c0 .263 0 .49.016.678.016.198.051.394.148.583a1.5 1.5 0 0 0 .655.656c.19.096.386.132.584.148.187.015.414.015.678.015h2.172c.263 0 .49 0 .678-.015.198-.016.394-.052.584-.148a1.5 1.5 0 0 0 .655-.656c.097-.189.132-.385.148-.583a8.95 8.95 0 0 0 .016-.678V2.914c0-.264 0-.491-.016-.679a1.527 1.527 0 0 0-.148-.583 1.5 1.5 0 0 0-.655-.656 1.527 1.527 0 0 0-.584-.148 8.95 8.95 0 0 0-.678-.015Zm-2.98 1.055a.57.57 0 0 1 .211-.043c.142-.012.328-.012.616-.012h2.134c.288 0 .474 0 .616.012a.57.57 0 0 1 .21.043.5.5 0 0 1 .22.218.57.57 0 0 1 .042.21c.011.143.012.329.012.617v2.133c0 .289 0 .475-.012.616a.57.57 0 0 1-.043.211.5.5 0 0 1-.218.219.57.57 0 0 1-.211.042 8.505 8.505 0 0 1-.616.012H2.933c-.288 0-.474 0-.616-.012a.57.57 0 0 1-.21-.042.5.5 0 0 1-.22-.219.57.57 0 0 1-.042-.21 8.498 8.498 0 0 1-.012-.617V2.933c0-.288 0-.474.012-.616a.57.57 0 0 1 .043-.211.5.5 0 0 1 .218-.218Zm2.98 6.945H2.914c-.264 0-.49 0-.678.015a1.527 1.527 0 0 0-.584.148 1.5 1.5 0 0 0-.655.656c-.097.19-.132.386-.148.584a8.95 8.95 0 0 0-.016.678v2.172c0 .263 0 .49.016.678.016.197.051.394.148.583a1.5 1.5 0 0 0 .655.656c.19.096.386.132.584.148.187.015.414.015.678.015h2.172c.263 0 .49 0 .678-.015a1.53 1.53 0 0 0 .584-.148 1.5 1.5 0 0 0 .655-.656c.097-.189.132-.386.148-.583.016-.187.016-.415.016-.678v-2.172c0-.264 0-.491-.016-.678a1.527 1.527 0 0 0-.148-.584 1.5 1.5 0 0 0-.655-.655 1.527 1.527 0 0 0-.584-.149c-.187-.015-.414-.015-.678-.015Zm-2.98 1.055a.57.57 0 0 1 .211-.043c.142-.012.328-.012.616-.012h2.134c.288 0 .474 0 .616.012a.57.57 0 0 1 .21.043.5.5 0 0 1 .22.218.57.57 0 0 1 .042.21c.011.143.012.329.012.617v2.133c0 .289 0 .475-.012.616a.569.569 0 0 1-.043.211.5.5 0 0 1-.218.219.57.57 0 0 1-.211.042 8.496 8.496 0 0 1-.616.012H2.933c-.288 0-.474 0-.616-.012a.57.57 0 0 1-.21-.042.5.5 0 0 1-.22-.219.57.57 0 0 1-.042-.21 8.497 8.497 0 0 1-.012-.617v-2.133c0-.288 0-.474.012-.616a.57.57 0 0 1 .043-.211.5.5 0 0 1 .218-.218Zm8.808-1.055h2.172c.264 0 .49 0 .678.015.198.016.394.052.584.148a1.5 1.5 0 0 1 .655.656c.097.19.132.386.148.584.016.187.016.414.016.678v2.172c0 .263 0 .49-.016.678a1.528 1.528 0 0 1-.148.583 1.5 1.5 0 0 1-.655.656 1.53 1.53 0 0 1-.584.148 8.91 8.91 0 0 1-.678.015h-2.172c-.264 0-.49 0-.678-.015a1.53 1.53 0 0 1-.584-.148 1.5 1.5 0 0 1-.655-.656 1.527 1.527 0 0 1-.148-.583 8.952 8.952 0 0 1-.016-.678v-2.172c0-.264 0-.491.016-.678.016-.198.051-.395.148-.584a1.5 1.5 0 0 1 .655-.655c.19-.097.386-.133.584-.149.187-.015.414-.015.678-.015Zm-.597 1.012a.57.57 0 0 0-.21.043.5.5 0 0 0-.22.218.57.57 0 0 0-.042.21 8.499 8.499 0 0 0-.012.617v2.133c0 .289 0 .475.012.616a.57.57 0 0 0 .043.211.5.5 0 0 0 .218.219.57.57 0 0 0 .211.042c.142.012.328.012.616.012h2.134c.288 0 .474 0 .616-.012a.569.569 0 0 0 .21-.042.5.5 0 0 0 .22-.219.572.572 0 0 0 .042-.21c.011-.142.012-.328.012-.617v-2.133c0-.288 0-.474-.012-.616a.573.573 0 0 0-.043-.211.5.5 0 0 0-.218-.218.57.57 0 0 0-.211-.043 8.505 8.505 0 0 0-.616-.012h-2.134c-.288 0-.474 0-.616.012ZM12.5 1.333a.5.5 0 0 0-1 0V3.5H9.333a.5.5 0 0 0 0 1H11.5v2.166a.5.5 0 1 0 1 0V4.5h2.167a.5.5 0 1 0 0-1H12.5V1.333Z"
    clip-rule="evenodd"
  />
</svg>
