<svg xmlns="http://www.w3.org/2000/svg" width="24" height="24" fill="none">
  <path
    fill="#545C6B"
    fill-rule="evenodd"
    d="M8.753 3H5.247c-.263 0-.49 0-.678.015a1.527 1.527 0 0 0-.583.148 1.5 1.5 0 0 0-.656.656c-.096.19-.132.386-.148.583-.015.188-.015.415-.015.679v3.505c0 .264 0 .49.015.678.016.198.052.394.148.584a1.5 1.5 0 0 0 .656.655c.189.097.385.132.583.148.187.016.415.016.678.016h3.506c.263 0 .49 0 .678-.016.198-.016.394-.051.583-.148a1.5 1.5 0 0 0 .656-.655c.096-.19.132-.386.148-.584.015-.187.015-.414.015-.678V5.08c0-.264 0-.491-.015-.679a1.528 1.528 0 0 0-.148-.583 1.5 1.5 0 0 0-.656-.656 1.527 1.527 0 0 0-.583-.148C9.244 3 9.016 3 8.753 3ZM4.44 4.054a.57.57 0 0 1 .21-.042C4.793 4 4.979 4 5.268 4h3.466c.289 0 .475 0 .616.012a.57.57 0 0 1 .211.043.5.5 0 0 1 .219.218.57.57 0 0 1 .042.21 8.5 8.5 0 0 1 .012.617v3.467c0 .288 0 .474-.012.616a.57.57 0 0 1-.042.21.5.5 0 0 1-.219.22.57.57 0 0 1-.21.042 8.498 8.498 0 0 1-.617.012H5.267c-.289 0-.475 0-.616-.012a.57.57 0 0 1-.211-.043.5.5 0 0 1-.219-.218.57.57 0 0 1-.042-.211 8.505 8.505 0 0 1-.012-.616V5.1c0-.288 0-.474.012-.616a.57.57 0 0 1 .042-.211.5.5 0 0 1 .219-.218Zm4.646 9.28H5.58c-.263 0-.49 0-.678.014a1.528 1.528 0 0 0-.583.149 1.5 1.5 0 0 0-.656.655c-.096.19-.132.386-.148.584-.015.187-.015.414-.015.678v3.505c0 .264 0 .491.015.678.016.198.052.395.148.584a1.5 1.5 0 0 0 .656.655c.189.097.386.133.583.149.187.015.415.015.678.015h3.506c.263 0 .49 0 .678-.015.198-.017.394-.052.583-.149a1.5 1.5 0 0 0 .656-.655c.096-.19.132-.386.148-.584.015-.187.015-.414.015-.678v-3.505c0-.264 0-.491-.015-.678a1.528 1.528 0 0 0-.148-.584 1.5 1.5 0 0 0-.656-.655 1.527 1.527 0 0 0-.583-.149 8.908 8.908 0 0 0-.678-.015Zm-4.313 1.054a.573.573 0 0 1 .21-.043c.142-.011.328-.012.617-.012h3.466c.289 0 .475 0 .616.012.136.011.187.03.211.043a.5.5 0 0 1 .219.218.57.57 0 0 1 .042.211c.012.142.012.328.012.616V18.9c0 .288 0 .474-.012.616a.57.57 0 0 1-.042.21.5.5 0 0 1-.219.22.57.57 0 0 1-.21.042 8.555 8.555 0 0 1-.617.012H5.6c-.289 0-.475 0-.616-.012a.57.57 0 0 1-.211-.043.5.5 0 0 1-.219-.218.57.57 0 0 1-.042-.211A8.5 8.5 0 0 1 4.5 18.9v-3.467c0-.288 0-.474.012-.616a.57.57 0 0 1 .042-.21.5.5 0 0 1 .219-.22ZM15.247 13h3.506c.263 0 .49 0 .678.015.197.016.394.052.583.149a1.5 1.5 0 0 1 .656.655c.096.19.132.386.148.583.015.188.015.415.015.679v3.505c0 .264 0 .49-.015.678a1.528 1.528 0 0 1-.148.584 1.5 1.5 0 0 1-.656.655c-.189.097-.386.132-.583.148-.187.016-.415.016-.678.016h-3.506c-.263 0-.49 0-.678-.016a1.528 1.528 0 0 1-.583-.148 1.5 1.5 0 0 1-.656-.655 1.526 1.526 0 0 1-.148-.584c-.015-.187-.015-.415-.015-.678V15.08c0-.264 0-.491.015-.678.016-.198.052-.395.148-.584a1.5 1.5 0 0 1 .656-.655c.189-.097.385-.133.583-.149.188-.015.415-.015.678-.015Zm-.596 1.012a.57.57 0 0 0-.211.043.5.5 0 0 0-.219.218.568.568 0 0 0-.042.21 8.483 8.483 0 0 0-.012.617v3.467c0 .288 0 .474.012.616.01.136.03.186.042.21a.5.5 0 0 0 .219.22.57.57 0 0 0 .21.042c.142.011.328.012.617.012h3.466c.289 0 .475 0 .616-.012a.571.571 0 0 0 .211-.043.501.501 0 0 0 .219-.218.57.57 0 0 0 .042-.211c.012-.142.012-.328.012-.616V15.1c0-.288 0-.474-.012-.616a.57.57 0 0 0-.042-.211.5.5 0 0 0-.219-.218.571.571 0 0 0-.21-.043 8.48 8.48 0 0 0-.617-.012h-3.466c-.289 0-.475 0-.616.012ZM17.5 3.5a.5.5 0 1 0-1 0v2.833h-2.833a.5.5 0 0 0 0 1H16.5v2.834a.5.5 0 0 0 1 0V7.333h2.833a.5.5 0 0 0 0-1H17.5V3.5Z"
    clip-rule="evenodd"
  />
</svg>
