<svg xmlns="http://www.w3.org/2000/svg" width="24" height="24" fill="none">
  <path
    fill="#545C6B"
    fill-rule="evenodd"
    d="M18 3.5a1 1 0 1 0-2 0v2.333h-2.333a1 1 0 1 0 0 2H16v2.334a1 1 0 1 0 2 0V7.833h2.333a1 1 0 0 0 0-2H18V3.5Zm-12.733-1h-.032c-.253 0-.498 0-.707.017a2.022 2.022 0 0 0-.77.201 2 2 0 0 0-.873.874 2.021 2.021 0 0 0-.201.77c-.017.208-.017.454-.017.706V8.6c0 .252 0 .498.017.706.018.228.062.498.2.77a2 2 0 0 0 .875.874c.271.138.54.182.77.2.208.018.453.018.706.018H8.765c.253 0 .498 0 .707-.017.228-.019.498-.063.77-.201a2 2 0 0 0 .873-.874c.139-.272.183-.542.201-.77.017-.208.017-.454.017-.706V5.068c0-.252 0-.498-.017-.706a2.022 2.022 0 0 0-.2-.77 2 2 0 0 0-.875-.874 2.021 2.021 0 0 0-.77-.201C9.264 2.5 9.019 2.5 8.766 2.5H5.267Zm-.59 2.025.001-.014h.013c.117-.01.28-.011.576-.011h3.466c.297 0 .46 0 .576.01l.013.001.001.014c.01.116.01.278.01.575v3.467c0 .296 0 .458-.01.575l-.001.013-.013.001c-.117.01-.28.01-.576.01H5.267c-.297 0-.46 0-.576-.01h-.013l-.001-.014a8.184 8.184 0 0 1-.01-.575V5.1c0-.297 0-.459.01-.575Zm.923 8.308h-.032c-.253 0-.498 0-.707.017a2.022 2.022 0 0 0-.77.201 2 2 0 0 0-.873.874 2.021 2.021 0 0 0-.201.77C3 14.903 3 15.149 3 15.401v3.531c0 .252 0 .498.017.706.018.229.062.498.2.77a2 2 0 0 0 .875.874c.271.138.54.182.77.201.208.017.453.017.706.017H9.098c.253 0 .498 0 .707-.017.228-.019.498-.063.77-.201a2 2 0 0 0 .873-.874c.139-.271.183-.541.201-.77.017-.208.017-.454.017-.706V15.4c0-.252 0-.498-.017-.706a2.022 2.022 0 0 0-.2-.77 2 2 0 0 0-.875-.874 2.022 2.022 0 0 0-.77-.2 9.15 9.15 0 0 0-.706-.018H5.6Zm-.59 2.025.001-.013.013-.001c.117-.01.28-.01.576-.01h3.466c.297 0 .46 0 .576.01h.013l.001.014c.01.117.01.279.01.575V18.9c0 .297 0 .459-.01.575l-.001.013-.013.002c-.117.01-.28.01-.576.01H5.6c-.297 0-.46 0-.576-.01l-.013-.002-.001-.013A8.192 8.192 0 0 1 5 18.9v-3.467c0-.296 0-.458.01-.575ZM15.235 12.5H18.765c.253 0 .498 0 .707.017.228.019.498.063.77.201a2 2 0 0 1 .873.874c.139.271.183.541.201.77.017.208.017.454.017.706V18.6c0 .252 0 .498-.017.706a2.022 2.022 0 0 1-.2.77 2 2 0 0 1-.875.874 2.02 2.02 0 0 1-.77.2c-.208.018-.453.018-.706.018H15.235c-.253 0-.498 0-.707-.017a2.02 2.02 0 0 1-.77-.201 2 2 0 0 1-.873-.874 2.023 2.023 0 0 1-.201-.77c-.017-.208-.017-.454-.017-.706v-3.531c0-.252 0-.498.017-.706.018-.229.062-.499.2-.77a2 2 0 0 1 .875-.874 2.02 2.02 0 0 1 .77-.201c.208-.017.453-.017.706-.017Zm-.557 2.011-.001.014c-.01.116-.01.278-.01.575v3.467c0 .296 0 .459.01.575l.001.013.013.001c.117.01.28.01.576.01h3.466c.297 0 .46 0 .576-.01h.013l.001-.014c.01-.116.01-.279.01-.575V15.1c0-.296 0-.459-.01-.575l-.001-.014h-.013a8.203 8.203 0 0 0-.576-.011h-3.466c-.297 0-.46 0-.576.01l-.013.002Z"
    clip-rule="evenodd"
  />
</svg>
