<svg xmlns="http://www.w3.org/2000/svg" width="24" height="24" fill="none">
  <path
    fill="#545C6B"
    d="M3.667 6.867c0-1.12 0-1.68.218-2.108a2 2 0 0 1 .874-.874c.428-.218.988-.218 2.108-.218h.266c1.12 0 1.68 0 2.108.218a2 2 0 0 1 .874.874c.218.428.218.988.218 2.108v.267c0 1.12 0 1.68-.218 2.108a2 2 0 0 1-.874.874c-.427.218-.988.218-2.108.218h-.266c-1.12 0-1.68 0-2.108-.218a2 2 0 0 1-.874-.874c-.218-.428-.218-.988-.218-2.108v-.267ZM3.667 16.867c0-1.12 0-1.68.218-2.108a2 2 0 0 1 .874-.874c.428-.218.988-.218 2.108-.218h.266c1.12 0 1.68 0 2.108.218a2 2 0 0 1 .874.874c.218.428.218.988.218 2.108v.267c0 1.12 0 1.68-.218 2.108a2 2 0 0 1-.874.874c-.427.218-.988.218-2.108.218h-.266c-1.12 0-1.68 0-2.108-.218a2 2 0 0 1-.874-.874c-.218-.428-.218-.988-.218-2.108v-.267ZM13.667 16.867c0-1.12 0-1.68.218-2.108a2 2 0 0 1 .874-.874c.428-.218.988-.218 2.108-.218h.266c1.12 0 1.68 0 2.108.218a2 2 0 0 1 .874.874c.218.428.218.988.218 2.108v.267c0 1.12 0 1.68-.218 2.108a2 2 0 0 1-.874.874c-.427.218-.988.218-2.108.218h-.266c-1.12 0-1.68 0-2.108-.218a2 2 0 0 1-.874-.874c-.218-.428-.218-.988-.218-2.108v-.267Z"
  />
  <path
    fill="#545C6B"
    fill-rule="evenodd"
    d="M5.24 2.917h3.52c.257 0 .494 0 .691.016.213.018.447.057.677.175.33.168.597.435.765.765.117.23.157.463.174.676.016.198.016.434.016.692V8.76c0 .257 0 .494-.016.692a1.772 1.772 0 0 1-.174.676 1.75 1.75 0 0 1-.765.765c-.23.117-.464.157-.677.175-.197.016-.434.016-.691.016H5.24c-.257 0-.494 0-.691-.016a1.773 1.773 0 0 1-.677-.175 1.75 1.75 0 0 1-.765-.765 1.774 1.774 0 0 1-.174-.676c-.016-.198-.016-.435-.016-.692V5.24c0-.258 0-.494.016-.692.017-.213.057-.446.174-.676a1.75 1.75 0 0 1 .765-.765c.23-.118.464-.157.677-.175.197-.016.434-.016.691-.016Zm-.692 1.53h.001-.001Zm.002-.001a.627.627 0 0 1 .121-.018c.13-.01.303-.011.596-.011h3.466c.293 0 .467 0 .596.011a.627.627 0 0 1 .12.018.25.25 0 0 1 .106.104.627.627 0 0 1 .017.121c.01.13.011.304.011.596v3.467c0 .292 0 .466-.01.595a.627.627 0 0 1-.018.121.25.25 0 0 1-.105.105.628.628 0 0 1-.12.018c-.13.01-.304.01-.597.01H5.267c-.293 0-.467 0-.596-.01a.628.628 0 0 1-.12-.018.25.25 0 0 1-.105-.105.628.628 0 0 1-.018-.12 8.339 8.339 0 0 1-.011-.596V5.267c0-.292 0-.467.01-.596a.628.628 0 0 1 .019-.12.25.25 0 0 1 .104-.105Zm-.104.102v.001-.001Zm0 4.905V9.45v.002Zm.102.1.001.001h-.001Zm4.904 0-.001.001h.001Zm.102-.1V9.45v.002Zm0-4.905v.001-.001Zm-.103-.102h.001-.001ZM5.24 12.917h3.52c.257 0 .494 0 .691.016.213.018.447.057.677.175.33.167.597.435.765.764.117.23.157.464.174.677.016.198.016.434.016.692v3.519c0 .257 0 .494-.016.691a1.772 1.772 0 0 1-.174.677 1.75 1.75 0 0 1-.765.765c-.23.117-.464.157-.677.174-.197.017-.434.017-.691.017H5.24c-.257 0-.494 0-.691-.017a1.773 1.773 0 0 1-.677-.174 1.75 1.75 0 0 1-.765-.765 1.774 1.774 0 0 1-.174-.677c-.016-.197-.016-.434-.016-.691V15.24c0-.258 0-.494.016-.692.017-.213.057-.446.174-.676a1.75 1.75 0 0 1 .765-.765c.23-.118.464-.158.677-.175.197-.016.434-.016.691-.016Zm-.692 1.53h.001-.001Zm.002-.001a.638.638 0 0 1 .121-.018c.13-.01.303-.011.596-.011h3.466c.293 0 .467 0 .596.011a.638.638 0 0 1 .12.018.25.25 0 0 1 .106.104.625.625 0 0 1 .017.121c.01.13.011.304.011.596v3.467c0 .292 0 .466-.01.595a.627.627 0 0 1-.018.121.25.25 0 0 1-.105.105.619.619 0 0 1-.12.018c-.13.01-.304.01-.597.01H5.267c-.293 0-.467 0-.596-.01a.62.62 0 0 1-.12-.018.25.25 0 0 1-.105-.105.628.628 0 0 1-.018-.12 8.337 8.337 0 0 1-.011-.596v-3.467c0-.292 0-.467.01-.596a.626.626 0 0 1 .019-.12.25.25 0 0 1 .104-.105Zm-.104.102v.001-.001Zm0 4.905v-.002.002Zm.102.1.001.002-.001-.001Zm4.904 0-.001.002.001-.001Zm.102-.1v-.002.002Zm0-4.905v.001-.001Zm-.103-.102h.001-.001ZM15.24 12.917h3.52c.257 0 .493 0 .691.016.213.018.447.057.677.175.33.167.597.435.765.764.117.23.157.464.174.677.016.198.016.434.016.692v3.519c0 .257 0 .494-.016.691a1.772 1.772 0 0 1-.174.677 1.75 1.75 0 0 1-.765.765c-.23.117-.464.157-.677.174-.198.017-.434.017-.691.017h-3.52c-.257 0-.494 0-.691-.017a1.773 1.773 0 0 1-.677-.174 1.75 1.75 0 0 1-.765-.765 1.774 1.774 0 0 1-.174-.677c-.016-.197-.016-.434-.016-.691V15.24c0-.258 0-.494.016-.692.017-.213.057-.446.174-.676a1.75 1.75 0 0 1 .765-.765c.23-.118.464-.158.677-.175.197-.016.434-.016.692-.016Zm-.692 1.53h.001-.001Zm.002-.001a.636.636 0 0 1 .121-.018c.13-.01.303-.011.596-.011h3.466c.293 0 .467 0 .596.011a.638.638 0 0 1 .12.018.25.25 0 0 1 .105.104.618.618 0 0 1 .018.121c.01.13.011.304.011.596v3.467c0 .292 0 .466-.01.595a.62.62 0 0 1-.018.121.25.25 0 0 1-.105.105.62.62 0 0 1-.12.018c-.13.01-.304.01-.597.01h-3.466c-.293 0-.467 0-.596-.01a.618.618 0 0 1-.12-.018.25.25 0 0 1-.106-.105.638.638 0 0 1-.017-.12 8.373 8.373 0 0 1-.011-.596v-3.467c0-.292 0-.467.01-.596a.636.636 0 0 1 .018-.12.25.25 0 0 1 .105-.105Zm-.104.102v.001-.001Zm0 4.905v-.002.002Zm.102.1.001.002-.001-.001Zm4.905 0-.002.002.002-.001Zm.1-.1.001-.002v.002Zm0-4.905.001.001v-.001Zm-.102-.102h.002-.002ZM17 2.917a.75.75 0 0 1 .75.75V6.25h2.583a.75.75 0 0 1 0 1.5H17.75v2.584a.75.75 0 0 1-1.5 0V7.75h-2.583a.75.75 0 0 1 0-1.5h2.583V3.667a.75.75 0 0 1 .75-.75Z"
    clip-rule="evenodd"
  />
</svg>
