<svg xmlns="http://www.w3.org/2000/svg" width="24" height="24" fill="none">
  <path
    fill="#545C6B"
    fill-rule="evenodd"
    d="M8.42 1.5H3.58c-.263 0-.49 0-.678.015a1.527 1.527 0 0 0-.583.148 1.5 1.5 0 0 0-.656.656c-.096.19-.132.386-.148.583-.015.188-.015.415-.015.679v4.838c0 .264 0 .491.015.679.016.197.052.394.148.583a1.5 1.5 0 0 0 .656.655c.19.097.386.133.583.149.188.015.415.015.679.015h4.838c.264 0 .491 0 .679-.015.197-.016.394-.052.583-.149a1.5 1.5 0 0 0 .655-.655c.097-.19.133-.386.149-.583.015-.188.015-.415.015-.679V3.581c0-.264 0-.491-.015-.679a1.526 1.526 0 0 0-.149-.583 1.5 1.5 0 0 0-.655-.656 1.527 1.527 0 0 0-.583-.148C8.91 1.5 8.683 1.5 8.419 1.5ZM2.772 2.554a.57.57 0 0 1 .21-.042c.143-.012.329-.012.617-.012h4.8c.288 0 .474 0 .616.012a.57.57 0 0 1 .211.042.5.5 0 0 1 .218.219.57.57 0 0 1 .043.21c.012.143.012.329.012.617v4.8c0 .288 0 .474-.012.616a.57.57 0 0 1-.043.211.5.5 0 0 1-.218.218.57.57 0 0 1-.21.043A8.505 8.505 0 0 1 8.4 9.5H3.6c-.288 0-.474 0-.616-.012a.57.57 0 0 1-.211-.043.5.5 0 0 1-.219-.218.57.57 0 0 1-.042-.21A8.505 8.505 0 0 1 2.5 8.4V3.6c0-.288 0-.474.012-.616a.57.57 0 0 1 .042-.211.5.5 0 0 1 .219-.219ZM8.419 13.5H3.581c-.264 0-.491 0-.679.015a1.526 1.526 0 0 0-.583.149 1.5 1.5 0 0 0-.656.655c-.096.19-.132.386-.148.583-.015.188-.015.415-.015.679v4.838c0 .264 0 .491.015.678.016.198.052.395.148.584a1.5 1.5 0 0 0 .656.655c.19.097.386.133.583.149.188.015.415.015.679.015h4.838c.264 0 .491 0 .679-.015.197-.016.394-.052.583-.148a1.5 1.5 0 0 0 .655-.656c.097-.19.133-.386.149-.584.015-.187.015-.414.015-.678v-4.838c0-.264 0-.491-.015-.678a1.526 1.526 0 0 0-.149-.584 1.5 1.5 0 0 0-.655-.655 1.526 1.526 0 0 0-.583-.149c-.188-.015-.415-.015-.679-.015Zm-5.646 1.055a.57.57 0 0 1 .21-.043c.143-.012.329-.012.617-.012h4.8c.288 0 .474 0 .616.012a.57.57 0 0 1 .211.043.5.5 0 0 1 .218.218.57.57 0 0 1 .043.21c.012.143.012.329.012.617v4.8c0 .288 0 .474-.012.616a.57.57 0 0 1-.043.211.5.5 0 0 1-.218.218.57.57 0 0 1-.21.043 8.482 8.482 0 0 1-.617.012H3.6c-.288 0-.474 0-.616-.012a.57.57 0 0 1-.211-.043.5.5 0 0 1-.219-.218.57.57 0 0 1-.042-.21A8.506 8.506 0 0 1 2.5 20.4v-4.8c0-.288 0-.474.012-.616a.57.57 0 0 1 .042-.211.5.5 0 0 1 .219-.218ZM15.581 13.5h4.838c.264 0 .491 0 .678.015.198.016.395.052.584.149a1.5 1.5 0 0 1 .655.655c.097.19.133.386.149.583.015.188.015.415.015.679v4.838c0 .264 0 .491-.015.678a1.526 1.526 0 0 1-.148.584 1.5 1.5 0 0 1-.656.655c-.19.097-.386.133-.584.149-.187.015-.414.015-.678.015h-4.838c-.264 0-.491 0-.678-.015a1.526 1.526 0 0 1-.584-.148 1.5 1.5 0 0 1-.655-.656 1.526 1.526 0 0 1-.149-.584c-.015-.187-.015-.414-.015-.678v-4.838c0-.264 0-.491.015-.678.016-.198.052-.395.149-.584a1.5 1.5 0 0 1 .655-.655c.19-.097.386-.133.583-.149.188-.015.415-.015.679-.015Zm-.597 1.012a.57.57 0 0 0-.211.043.5.5 0 0 0-.218.218.57.57 0 0 0-.043.21 8.483 8.483 0 0 0-.012.617v4.8c0 .288 0 .474.012.616a.57.57 0 0 0 .043.211.5.5 0 0 0 .218.218.57.57 0 0 0 .21.043c.143.012.329.012.617.012h4.8c.288 0 .474 0 .616-.012a.57.57 0 0 0 .211-.043.5.5 0 0 0 .218-.218.57.57 0 0 0 .043-.21c.012-.143.012-.329.012-.617v-4.8c0-.288 0-.474-.012-.616a.57.57 0 0 0-.043-.211.5.5 0 0 0-.218-.218.57.57 0 0 0-.21-.043 8.483 8.483 0 0 0-.617-.012h-4.8c-.288 0-.474 0-.616.012ZM18.5 2a.5.5 0 0 0-1 0v3.5H14a.5.5 0 0 0 0 1h3.5V10a.5.5 0 0 0 1 0V6.5H22a.5.5 0 0 0 0-1h-3.5V2Z"
    clip-rule="evenodd"
  />
</svg>
