<svg xmlns="http://www.w3.org/2000/svg" width="16" height="16" fill="none">
  <path
    fill="#545C6B"
    fill-rule="evenodd"
    d="M4.504 1.25h6.993c.535 0 .98 0 1.345.03.38.03.736.098 1.074.27a2.75 2.75 0 0 1 1.202 1.202c.171.337.239.693.27 1.073.03.365.03.81.03 1.345v5.66c0 .535 0 .98-.03 1.345-.031.38-.099.736-.27 1.073a2.751 2.751 0 0 1-1.202 1.202c-.338.172-.694.24-1.074.27-.364.03-.81.03-1.344.03H7.334a.75.75 0 0 1 0-1.5h4.133c.573 0 .957 0 1.253-.025.287-.023.424-.065.515-.111a1.25 1.25 0 0 0 .546-.546c.046-.091.088-.228.112-.515.024-.296.024-.68.024-1.253V7.017c0-.56 0-.84-.109-1.054a1 1 0 0 0-.437-.437c-.214-.11-.494-.11-1.054-.11H3.684c-.56 0-.84 0-1.054.11a1 1 0 0 0-.437.437c-.109.214-.109.494-.109 1.054v3.173a.75.75 0 0 1-1.5 0V5.17c0-.535 0-.98.03-1.345.03-.38.098-.736.27-1.073A2.75 2.75 0 0 1 2.086 1.55c.337-.172.693-.24 1.073-.27.365-.03.81-.03 1.345-.03ZM3.47 10.803a.75.75 0 0 1 1.061 0l1.333 1.333a.75.75 0 0 1 0 1.06L4.531 14.53a.75.75 0 1 1-1.06-1.06l.052-.054H1.334a.75.75 0 1 1 0-1.5h2.19l-.054-.053a.75.75 0 0 1 0-1.06ZM10 7.25a.75.75 0 1 0 0 1.5h2a.75.75 0 0 0 0-1.5h-2Z"
    clip-rule="evenodd"
  />
</svg>
