<svg xmlns="http://www.w3.org/2000/svg" width="24" height="24" fill="none">
  <path
    fill="#545C6B"
    fill-rule="evenodd"
    d="M17.154 4H6.844c-.541 0-.978 0-1.332.029-.365.03-.685.093-.981.243a2.5 2.5 0 0 0-1.092 1.093c-.151.296-.214.616-.244.98-.029.355-.029.792-.029 1.334v7.06a.5.5 0 0 0 1 0V9.166h15.667V16.3c0 .568 0 .965-.026 1.273-.025.302-.07.476-.138.608a1.5 1.5 0 0 1-.655.655c-.132.068-.306.114-.608.138-.309.026-.705.026-1.273.026h-5.967a.5.5 0 0 0 0 1h5.988c.542 0 .98 0 1.333-.029.364-.03.685-.093.98-.244a2.5 2.5 0 0 0 1.093-1.092c.151-.296.214-.616.244-.98.029-.355.029-.792.029-1.334V7.68c0-.542 0-.98-.03-1.333-.029-.365-.092-.685-.243-.981a2.5 2.5 0 0 0-1.092-1.093c-.296-.15-.617-.213-.981-.243C18.133 4 17.696 4 17.154 4Zm2.679 4.167H4.166V7.7c0-.568 0-.964.026-1.273.024-.302.07-.476.138-.608a1.5 1.5 0 0 1 .655-.656c.132-.067.306-.113.608-.137C5.902 5 6.298 5 6.866 5h10.267c.568 0 .964 0 1.273.026.302.024.476.07.608.137a1.5 1.5 0 0 1 .655.656c.067.132.113.306.138.608.025.309.026.705.026 1.273v.467Zm-12.48 7.646a.5.5 0 0 0-.707.707l.813.814H3.666a.5.5 0 1 0 0 1h3.793l-.813.813a.5.5 0 1 0 .707.707l1.667-1.667a.5.5 0 0 0 0-.707l-1.667-1.667Zm7.146-4.313a.5.5 0 0 0 0 1H17a.5.5 0 1 0 0-1h-2.5Z"
    clip-rule="evenodd"
  />
</svg>
