<svg xmlns="http://www.w3.org/2000/svg" width="24" height="24" fill="none">
  <path
    fill="#545C6B"
    fill-rule="evenodd"
    d="M17.222 2.5H6.778c-.821 0-1.468 0-1.99.043-.53.043-.974.133-1.377.338a3.5 3.5 0 0 0-1.53 1.53c-.205.403-.295.847-.338 1.378-.043.52-.043 1.168-.043 1.989v7.508a.5.5 0 1 0 1 0V8.5h19v7.7c0 .848 0 1.454-.04 1.93-.038.469-.11.766-.233 1.005a2.5 2.5 0 0 1-1.092 1.092c-.239.122-.536.195-1.005.234-.476.039-1.082.039-1.93.039H11a.5.5 0 0 0 0 1h6.222c.822 0 1.468 0 1.99-.043.53-.043.974-.133 1.377-.338a3.5 3.5 0 0 0 1.53-1.53c.205-.403.295-.847.338-1.378.043-.52.043-1.167.043-1.989V7.778c0-.821 0-1.468-.043-1.99-.043-.53-.133-.974-.338-1.377a3.5 3.5 0 0 0-1.53-1.53c-.403-.205-.847-.295-1.378-.338-.52-.043-1.167-.043-1.989-.043Zm4.278 5h-19c0-.694.005-1.213.04-1.63.038-.469.11-.766.232-1.005a2.5 2.5 0 0 1 1.093-1.093c.239-.121.536-.194 1.005-.233C5.345 3.5 5.952 3.5 6.8 3.5h10.4c.848 0 1.454 0 1.93.04.469.038.766.11 1.005.232a2.5 2.5 0 0 1 1.092 1.093c.122.239.195.536.234 1.005.034.417.038.936.039 1.63ZM6.354 16.646a.5.5 0 0 0-.708.708L6.793 18.5H2a.5.5 0 0 0 0 1h4.793l-1.147 1.146a.5.5 0 0 0 .708.708l2-2a.5.5 0 0 0 0-.708l-2-2ZM15 11.5a.5.5 0 0 0 0 1h3a.5.5 0 0 0 0-1h-3Z"
    clip-rule="evenodd"
  />
</svg>
