<svg xmlns="http://www.w3.org/2000/svg" width="28" height="28" fill="none">
  <path
    fill="#545C6B"
    fill-rule="evenodd"
    d="M20.89 3H7.112c-.822 0-1.468 0-1.99.043-.53.043-.974.133-1.377.338a3.5 3.5 0 0 0-1.53 1.53c-.205.403-.295.847-.338 1.378-.043.52-.043 1.168-.043 1.989v9.555a.5.5 0 1 0 1 0V9.826a.503.503 0 0 0 .083.007h22.167a.504.504 0 0 0 .083-.007V19.7c0 .848 0 1.454-.039 1.93-.038.469-.112.766-.233 1.005a2.5 2.5 0 0 1-1.093 1.092c-.238.122-.536.195-1.005.234-.475.039-1.081.039-1.93.039h-8.033a.5.5 0 1 0 0 1h8.056c.82 0 1.468 0 1.988-.043.532-.043.975-.133 1.378-.338a3.5 3.5 0 0 0 1.53-1.53c.205-.403.295-.847.339-1.378.042-.52.042-1.167.042-1.989V8.278c0-.821 0-1.468-.042-1.99-.044-.53-.134-.974-.34-1.377a3.5 3.5 0 0 0-1.529-1.53c-.403-.205-.846-.295-1.378-.338C22.358 3 21.711 3 20.89 3ZM2.917 8.833a.504.504 0 0 0-.083.007V8.3c0-.848 0-1.455.04-1.93.038-.469.11-.766.232-1.005A2.5 2.5 0 0 1 4.2 4.272c.239-.121.536-.194 1.005-.233C5.68 4 6.286 4 7.134 4h13.733c.849 0 1.455 0 1.93.04.47.038.767.11 1.005.232a2.5 2.5 0 0 1 1.093 1.093c.121.239.195.536.233 1.005.039.475.04 1.082.04 1.93v.54a.503.503 0 0 0-.084-.007H2.917ZM7.354 19.48a.5.5 0 1 0-.707.707l1.48 1.48H2.334a.5.5 0 0 0 0 1h5.793l-1.48 1.48a.5.5 0 0 0 .707.706l2.334-2.333a.5.5 0 0 0 0-.707L7.354 19.48Zm10.147-5.98a.5.5 0 1 0 0 1H21a.5.5 0 0 0 0-1h-3.5Z"
    clip-rule="evenodd"
  />
</svg>
