<svg xmlns="http://www.w3.org/2000/svg" width="28" height="28" fill="none">
  <path
    fill="#545C6B"
    fill-rule="evenodd"
    d="M13.417 3.916a9.5 9.5 0 1 0 0 19 9.5 9.5 0 0 0 0-19Zm-11.5 9.5c0-6.351 5.148-11.5 11.5-11.5 6.351 0 11.5 5.149 11.5 11.5 0 2.816-1.012 5.395-2.692 7.394l3.565 3.566a1 1 0 0 1-1.414 1.414l-3.566-3.566c-1.999 1.68-4.578 2.692-7.393 2.692-6.352 0-11.5-5.149-11.5-11.5Zm12.5-3.5a1 1 0 1 0-2 0v2.5h-2.5a1 1 0 1 0 0 2h2.5v2.5a1 1 0 0 0 2 0v-2.5h2.5a1 1 0 1 0 0-2h-2.5v-2.5Z"
    clip-rule="evenodd"
  />
</svg>
