<svg xmlns="http://www.w3.org/2000/svg" width="16" height="16" fill="none">
  <path
    fill="#545C6B"
    fill-rule="evenodd"
    d="M10.166 5.539c0-2.354-3.052-3.278-4.358-1.32a1.379 1.379 0 0 1-1.147.614h-.459c-.495 0-.833 0-1.124.07a2.5 2.5 0 0 0-1.841 1.841c-.07.291-.07.63-.07 1.124v.263c0 .495 0 .833.07 1.124a2.5 2.5 0 0 0 1.84 1.841c.292.07.63.07 1.125.07h.459c.461 0 .892.23 1.147.614 1.306 1.959 4.358 1.035 4.358-1.32V5.54ZM6.64 4.774c.757-1.135 2.527-.6 2.527.765v4.922c0 1.364-1.77 1.9-2.527.765a2.379 2.379 0 0 0-1.979-1.06h-.389c-.592 0-.8-.003-.959-.042A1.5 1.5 0 0 1 2.21 9.02c-.039-.16-.042-.367-.042-.96V7.94c0-.593.003-.8.042-.96a1.5 1.5 0 0 1 1.104-1.104c.16-.038.367-.042.96-.042h.388c.795 0 1.538-.398 1.98-1.06Zm5.278-1.052a.5.5 0 0 1 .693-.138c1.346.899 2.223 2.554 2.223 4.416 0 1.862-.877 3.517-2.223 4.416a.5.5 0 1 1-.555-.832C13.1 10.886 13.834 9.557 13.834 8s-.733-2.887-1.778-3.584a.5.5 0 0 1-.138-.694ZM11.25 6.39a.5.5 0 0 1 .693-.138c.55.366.89 1.026.89 1.749 0 .722-.34 1.382-.89 1.749a.5.5 0 1 1-.555-.832c.248-.165.444-.5.444-.917 0-.418-.196-.752-.444-.918a.5.5 0 0 1-.138-.693Z"
    clip-rule="evenodd"
  />
</svg>
