<svg xmlns="http://www.w3.org/2000/svg" width="16" height="16" fill="none">
  <path
    fill="#545C6B"
    fill-rule="evenodd"
    d="M10.667 5.538c0-2.848-3.695-3.966-5.275-1.596a.879.879 0 0 1-.73.39H4.17c-.462 0-.86 0-1.211.085A3 3 0 0 0 .75 6.627c-.085.351-.085.749-.084 1.21v.325c0 .461-.001.859.084 1.211a3 3 0 0 0 2.209 2.209c.352.085.75.085 1.21.084h.492c.293 0 .567.147.73.392 1.58 2.37 5.275 1.251 5.275-1.597V9.345a1 1 0 0 0 1.555.82c.7-.468 1.111-1.29 1.111-2.166 0-.874-.411-1.697-1.111-2.164a1 1 0 0 0-1.555.819V5.538Zm0 1.139v2.645a.999.999 0 0 1 .444-.82c.098-.066.222-.238.222-.503 0-.264-.124-.436-.222-.501a.999.999 0 0 1-.444-.821ZM7.057 5.05c.482-.724 1.61-.382 1.61.487v4.923c0 .87-1.128 1.21-1.61.487A2.879 2.879 0 0 0 4.66 9.666h-.389c-.621 0-.754-.007-.84-.028a1 1 0 0 1-.737-.736c-.021-.087-.028-.22-.028-.841v-.123c0-.62.007-.754.028-.84a1 1 0 0 1 .736-.737c.087-.021.22-.028.841-.028h.39c.962 0 1.86-.481 2.394-1.282Zm4.445-1.607a1 1 0 0 1 1.387-.276c1.497 1 2.445 2.817 2.445 4.832 0 2.014-.948 3.832-2.445 4.831a1 1 0 0 1-1.11-1.663c.894-.597 1.555-1.764 1.555-3.168 0-1.405-.661-2.571-1.556-3.169a1 1 0 0 1-.276-1.387Z"
    clip-rule="evenodd"
  />
</svg>
