<svg xmlns="http://www.w3.org/2000/svg" width="24" height="24" fill="none">
  <path
    fill="#545C6B"
    fill-rule="evenodd"
    d="M15.01 7.11c-.515-2.271-3.307-3.117-4.994-1.512a3.898 3.898 0 0 0-.462.57c-.154.22-.35.515-.598.886l-.008.012c-.11.165-.133.199-.154.224a1 1 0 0 1-.696.373 3.868 3.868 0 0 1-.272.003h-.581c-.527 0-.982 0-1.357.03-.395.033-.788.104-1.167.297a3 3 0 0 0-1.31 1.311c-.194.379-.265.772-.297 1.167-.03.375-.03.83-.03 1.357v.344c0 .527 0 .981.03 1.356.032.395.103.788.296 1.167a3 3 0 0 0 1.311 1.311c.379.193.772.264 1.167.296.375.031.83.031 1.357.031h.581c.2 0 .24 0 .272.004a1 1 0 0 1 .696.372c.02.026.044.059.154.224l.008.012c.248.372.444.666.598.886.144.204.3.416.462.57 1.687 1.605 4.48.76 4.993-1.511a3.9 3.9 0 0 0 .068-.732c.006-.268.006-.622.006-1.068V8.91c0-.446 0-.8-.006-1.068a3.9 3.9 0 0 0-.068-.731Zm-3.616-.063a1 1 0 0 1 1.665.504c0 .006.012.086.018.338.006.241.006.57.006 1.034v6.153c0 .464 0 .793-.006 1.034a3.13 3.13 0 0 1-.018.338 1 1 0 0 1-1.665.504 3.125 3.125 0 0 1-.203-.27 48.981 48.981 0 0 1-.579-.858l-.017-.026a4.794 4.794 0 0 0-.238-.337 3 3 0 0 0-2.087-1.117c-.13-.011-.262-.011-.412-.011H7.283c-.576 0-.949 0-1.232-.024-.272-.022-.372-.06-.422-.085a1 1 0 0 1-.437-.437c-.025-.05-.063-.15-.085-.422-.023-.283-.024-.655-.024-1.232v-.267c0-.576.001-.948.024-1.232.022-.271.06-.372.085-.422a1 1 0 0 1 .437-.437c.05-.025.15-.063.422-.085.283-.023.656-.024 1.232-.024H7.858c.15 0 .282 0 .412-.01a3 3 0 0 0 2.088-1.118c.08-.102.154-.211.237-.337l.018-.026c.257-.386.44-.66.578-.857.145-.207.2-.267.203-.27Zm5.19-.603a1 1 0 0 1 1.388-.276c1.796 1.2 2.944 3.39 2.944 5.832 0 2.441-1.148 4.632-2.944 5.831a1 1 0 1 1-1.11-1.663c1.193-.797 2.055-2.337 2.055-4.168 0-1.832-.863-3.372-2.056-4.169a1 1 0 0 1-.276-1.387Zm-.832 3.334a1 1 0 0 1 1.387-.277c.799.534 1.278 1.481 1.278 2.498 0 1.018-.48 1.965-1.278 2.499a1 1 0 0 1-1.111-1.663c.197-.132.389-.428.389-.836 0-.407-.192-.703-.39-.835a1 1 0 0 1-.275-1.386Z"
    clip-rule="evenodd"
  />
</svg>
