<svg xmlns="http://www.w3.org/2000/svg" width="28" height="28" fill="none">
  <path
    fill="#545C6B"
    fill-rule="evenodd"
    d="M16.718 3.705a2.5 2.5 0 0 0-2.34-.708c-.306.068-.582.238-.838.457-.256.22-.518.513-.796.865-.552.699-1.222 1.704-2.092 3.009l-.201.303c-.365.547-.494.73-.652.86a1.5 1.5 0 0 1-.517.277c-.196.06-.42.065-1.078.065h-.641c-.76 0-1.359 0-1.842.037-.492.037-.905.114-1.284.29a3.5 3.5 0 0 0-1.693 1.694c-.176.379-.254.791-.29 1.284-.038.483-.038 1.081-.038 1.841v.041c0 .76 0 1.359.037 1.842.037.492.115.905.291 1.283a3.5 3.5 0 0 0 1.693 1.693c.38.177.792.255 1.284.292.483.036 1.082.036 1.842.036h.64c.658 0 .883.005 1.079.065a1.5 1.5 0 0 1 .517.276c.158.13.287.315.652.862l.201.303c.87 1.304 1.54 2.31 2.092 3.008.278.353.54.645.796.865.256.22.532.39.839.457a2.5 2.5 0 0 0 2.34-.708c.217-.227.352-.522.443-.846.091-.325.147-.713.183-1.16.072-.889.072-2.097.072-3.665V9.376c0-1.568 0-2.776-.072-3.664a6.25 6.25 0 0 0-.183-1.161c-.09-.324-.226-.619-.444-.846Zm-2.124.269a1.5 1.5 0 0 1 1.404.425c.06.063.135.185.201.422a5.3 5.3 0 0 1 .15.971c.067.843.067 2.01.067 3.61v9.195c0 1.6 0 2.767-.068 3.61-.034.42-.083.736-.149.972-.066.237-.14.358-.202.422a1.5 1.5 0 0 1-1.403.425c-.086-.02-.215-.08-.402-.24a5.31 5.31 0 0 1-.663-.726c-.524-.663-1.172-1.634-2.059-2.965l-.188-.281-.04-.061c-.308-.462-.52-.782-.809-1.018a2.501 2.501 0 0 0-.86-.46c-.357-.109-.74-.109-1.295-.109h-.694c-.786 0-1.347 0-1.787-.033-.436-.033-.713-.096-.937-.2a2.5 2.5 0 0 1-1.21-1.21c-.104-.224-.167-.501-.2-.937-.033-.44-.034-1.002-.034-1.786 0-.785 0-1.346.034-1.787.033-.435.096-.713.2-.937a2.5 2.5 0 0 1 1.21-1.209c.224-.104.501-.167.937-.2.44-.034 1.001-.034 1.786-.034h.695c.555 0 .938 0 1.295-.108a2.5 2.5 0 0 0 .86-.46c.288-.237.501-.556.809-1.018l.04-.062.188-.28c.887-1.331 1.535-2.303 2.059-2.966a5.3 5.3 0 0 1 .663-.726c.187-.16.316-.22.402-.24Zm6.574 2.748a.5.5 0 0 1 .693-.138c2.243 1.498 3.723 4.272 3.723 7.416 0 3.143-1.48 5.918-3.723 7.416a.5.5 0 1 1-.555-.832c1.942-1.297 3.277-3.745 3.277-6.584 0-2.839-1.335-5.288-3.277-6.584a.5.5 0 0 1-.138-.694ZM20 11.39a.5.5 0 0 1 .693-.138c.848.566 1.39 1.6 1.39 2.749 0 1.15-.542 2.183-1.39 2.749a.5.5 0 0 1-.555-.832c.547-.365.944-1.073.944-1.917 0-.845-.397-1.553-.944-1.918A.5.5 0 0 1 20 11.39Z"
    clip-rule="evenodd"
  />
</svg>
