<svg xmlns="http://www.w3.org/2000/svg" width="28" height="28" fill="none">
  <path
    fill="#545C6B"
    fill-rule="evenodd"
    d="M16.898 3.532a2.75 2.75 0 0 0-2.573-.78c-.362.08-.675.279-.947.513a6.493 6.493 0 0 0-.83.9c-.558.706-1.233 1.718-2.097 3.014l-.209.313c-.373.56-.48.705-.602.807a1.25 1.25 0 0 1-.43.23c-.153.046-.333.054-1.006.054h-.65c-.753 0-1.36 0-1.852.037-.506.039-.953.12-1.37.314a3.75 3.75 0 0 0-1.814 1.814c-.195.418-.276.864-.314 1.37-.038.493-.038 1.1-.038 1.852v.06c0 .751 0 1.358.038 1.85.038.507.12.954.314 1.371a3.75 3.75 0 0 0 1.814 1.814c.417.195.864.276 1.37.314.493.037 1.1.037 1.851.037h.65c.674 0 .854.008 1.006.054.158.048.304.126.43.23.124.102.23.248.603.807l.21.313c.863 1.296 1.538 2.308 2.096 3.015.282.358.556.665.83.9.272.234.585.432.947.511a2.75 2.75 0 0 0 2.573-.779c.258-.267.408-.605.505-.951a6.5 6.5 0 0 0 .191-1.209c.072-.897.072-2.114.072-3.671V9.364c0-1.558 0-2.774-.072-3.672a6.5 6.5 0 0 0-.191-1.209c-.097-.345-.247-.683-.505-.951Zm-2.25.686a1.25 1.25 0 0 1 1.17.354c.021.023.08.1.14.316.06.214.108.512.141.925.067.83.067 1.985.067 3.589v9.195c0 1.604 0 2.76-.067 3.59-.033.413-.08.71-.14.924-.06.215-.12.294-.142.316a1.25 1.25 0 0 1-1.17.355c-.03-.007-.123-.04-.292-.185a5.068 5.068 0 0 1-.63-.692c-.516-.653-1.157-1.614-2.047-2.949l-.188-.28-.052-.079c-.296-.445-.528-.794-.846-1.055a2.75 2.75 0 0 0-.947-.507c-.393-.12-.813-.12-1.347-.119h-.714c-.79 0-1.34 0-1.768-.033-.422-.032-.665-.091-.85-.177a2.25 2.25 0 0 1-1.089-1.089c-.086-.185-.146-.429-.177-.85-.033-.429-.034-.979-.034-1.767 0-.789.001-1.339.034-1.768.031-.421.091-.665.177-.85a2.25 2.25 0 0 1 1.089-1.088c.185-.087.428-.146.85-.178.429-.032.978-.033 1.767-.033h.715c.534 0 .954 0 1.347-.119a2.75 2.75 0 0 0 .947-.507c.318-.26.55-.61.846-1.055l.053-.078.187-.281c.89-1.334 1.531-2.296 2.047-2.95a5.07 5.07 0 0 1 .63-.69c.17-.146.262-.178.293-.185Zm6.312 2.365A.75.75 0 0 1 22 6.376c2.318 1.548 3.834 4.404 3.834 7.624 0 3.22-1.516 6.075-3.834 7.623a.75.75 0 1 1-.833-1.247c1.866-1.246 3.167-3.614 3.167-6.376 0-2.763-1.3-5.13-3.167-6.376a.75.75 0 0 1-.207-1.04Zm-1.167 4.667a.75.75 0 0 1 1.04-.207c.923.616 1.5 1.73 1.5 2.957 0 1.226-.577 2.34-1.5 2.957A.75.75 0 1 1 20 15.709c.472-.315.833-.941.833-1.71 0-.768-.361-1.394-.833-1.709a.75.75 0 0 1-.207-1.04Z"
    clip-rule="evenodd"
  />
</svg>
