<svg xmlns="http://www.w3.org/2000/svg" width="24" height="24" fill="none">
  <path
    fill="#545C6B"
    fill-rule="evenodd"
    d="M9.403 8.315A2.5 2.5 0 0 1 10.617 8h3.043a2.5 2.5 0 0 1 1.325.38l.672.42H8.53l.873-.485ZM10.617 7a3.5 3.5 0 0 0-1.7.44L6.405 8.837a4.1 4.1 0 1 0 4.137 6.061c.355.406.877.662 1.46.662.581 0 1.103-.255 1.458-.66a4.1 4.1 0 1 0 4.146-6.06l-2.09-1.308A3.5 3.5 0 0 0 13.66 7h-3.043Zm2.425 4.983A4.098 4.098 0 0 1 14.356 9.8H9.643a4.099 4.099 0 0 1 1.314 2.184 1.93 1.93 0 0 1 1.044-.304c.383 0 .74.111 1.041.303Zm.898.917a3.1 3.1 0 0 1 3.059-3.1h.081a3.1 3.1 0 1 1-3.14 3.1ZM6.919 9.8H7a3.1 3.1 0 1 1-.081 0Zm4.141 3.82a.94.94 0 1 1 1.88 0 .94.94 0 0 1-1.88 0Z"
    clip-rule="evenodd"
  />
</svg>
