<svg xmlns="http://www.w3.org/2000/svg" width="24" height="24" fill="none">
  <path
    fill="#545C6B"
    fill-rule="evenodd"
    d="M9.525 8.533a2.25 2.25 0 0 1 1.092-.283h3.043c.394 0 .781.104 1.122.3H9.494l.03-.017Zm1.092-1.783a3.75 3.75 0 0 0-1.82.472L6.322 8.596a4.351 4.351 0 1 0 4.268 6.7c.38.321.873.514 1.41.514a2.18 2.18 0 0 0 1.408-.513 4.35 4.35 0 1 0 4.284-6.699L15.647 7.32a3.75 3.75 0 0 0-1.987-.57h-3.043Zm2.265 4.865c.18-.584.48-1.115.87-1.565h-3.506c.391.45.69.982.871 1.566a2.183 2.183 0 0 1 1.765 0ZM14.19 12.9A2.85 2.85 0 0 1 17 10.05h.079a2.85 2.85 0 1 1-2.89 2.85Zm-7.27-2.85H7a2.85 2.85 0 1 1-.079 0Zm4.39 3.57a.69.69 0 1 1 1.38 0 .69.69 0 0 1-1.38 0Z"
    clip-rule="evenodd"
  />
</svg>
