<svg xmlns="http://www.w3.org/2000/svg" width="28" height="28" fill="none">
  <path
    fill="#545C6B"
    fill-rule="evenodd"
    d="M10.806 9.002a2 2 0 0 1 .971-.252h4.862a2 2 0 0 1 1.06.304l.314.196h-7.654l.447-.248Zm.971-2.252a4 4 0 0 0-1.942.503l-3.708 2.06a6.001 6.001 0 1 0 5.907 9.203A2.988 2.988 0 0 0 14 19.25c.752 0 1.44-.277 1.966-.734a6 6 0 1 0 5.926-9.2l-3.133-1.958a4 4 0 0 0-2.12-.608h-4.862Zm3.475 6.773a5.992 5.992 0 0 1 1.276-2.273h-5.056a5.992 5.992 0 0 1 1.276 2.273A2.989 2.989 0 0 1 14 13.25c.447 0 .871.098 1.252.273ZM17 15.25a4 4 0 1 1 8 0 4 4 0 0 1-8 0Zm-10-4a4 4 0 1 0 0 8 4 4 0 0 0 0-8Zm6 5a1 1 0 1 1 2 0 1 1 0 0 1-2 0Z"
    clip-rule="evenodd"
  />
</svg>
