<svg xmlns="http://www.w3.org/2000/svg" width="28" height="28" fill="none">
  <path
    fill="#545C6B"
    fill-rule="evenodd"
    d="M10.684 8.783a2.25 2.25 0 0 1 1.093-.283h4.862c.422 0 .835.119 1.193.342l1.053.658h-9.49l1.29-.717ZM11.777 7a3.75 3.75 0 0 0-1.821.472L6.208 9.554a5.751 5.751 0 1 0 5.776 8.566c.502.541 1.22.88 2.016.88.797 0 1.514-.339 2.016-.88a5.75 5.75 0 1 0 5.788-8.564L18.627 7.57A3.75 3.75 0 0 0 16.639 7h-4.862Zm3.635 6.89A5.746 5.746 0 0 1 17.127 11h-6.254a5.746 5.746 0 0 1 1.715 2.89c.413-.248.896-.39 1.412-.39.516 0 1 .142 1.412.39Zm1.338 1.36a4.25 4.25 0 1 1 8.5 0 4.25 4.25 0 0 1-8.5 0ZM7 11a4.25 4.25 0 1 0 0 8.5A4.25 4.25 0 0 0 7 11Zm5.75 5.25a1.25 1.25 0 1 1 2.5 0 1.25 1.25 0 0 1-2.5 0Z"
    clip-rule="evenodd"
  />
</svg>
