<svg xmlns="http://www.w3.org/2000/svg" width="28" height="28" fill="none">
  <path
    fill="#545C6B"
    fill-rule="evenodd"
    d="M15.646 3.388a4 4 0 0 0-3.292 0c-.494.223-1.026.713-1.756 1.775-.726 1.056-1.555 2.536-2.706 4.59l-2.684 4.793c-1.106 1.976-1.9 3.397-2.403 4.524-.504 1.132-.643 1.82-.582 2.351a4 4 0 0 0 1.636 2.79c.433.313 1.102.529 2.335.642 1.23.113 2.858.114 5.122.114h5.368c2.264 0 3.893-.001 5.122-.114 1.233-.113 1.902-.329 2.335-.641a4 4 0 0 0 1.636-2.79c.06-.531-.078-1.22-.582-2.352-.502-1.127-1.297-2.549-2.403-4.524l-2.684-4.793c-1.15-2.054-1.98-3.534-2.706-4.59-.73-1.062-1.262-1.552-1.756-1.775Zm-4.115-1.823a6 6 0 0 1 4.938 0c1.006.454 1.795 1.321 2.581 2.465.784 1.141 1.658 2.702 2.776 4.699l2.737 4.887c1.074 1.918 1.915 3.42 2.459 4.64.547 1.228.865 2.32.742 3.392a6 6 0 0 1-2.454 4.187c-.876.63-1.984.887-3.322 1.01-1.331.122-3.051.122-5.25.122h-5.476c-2.199 0-3.919 0-5.25-.122-1.338-.123-2.446-.38-3.322-1.01a6 6 0 0 1-2.454-4.187c-.123-1.072.195-2.164.742-3.391.544-1.222 1.385-2.723 2.459-4.641l2.737-4.887C7.292 6.732 8.166 5.17 8.95 4.03c.786-1.144 1.575-2.01 2.58-2.465ZM14 9.8a1 1 0 0 1 1 1v4.667a1 1 0 1 1-2 0V10.8a1 1 0 0 1 1-1Zm-.167 10a1 1 0 1 0 0-2 1 1 0 0 0 0 2Z"
    clip-rule="evenodd"
  />
</svg>
