<svg xmlns="http://www.w3.org/2000/svg" width="28" height="28" fill="none">
  <path
    fill="#545C6B"
    fill-rule="evenodd"
    d="M15.749 3.16a4.25 4.25 0 0 0-3.498 0c-.558.252-1.122.789-1.859 1.861-.734 1.068-1.57 2.56-2.718 4.61L4.99 14.424c-1.104 1.971-1.905 3.404-2.413 4.545-.51 1.143-.67 1.882-.602 2.48a4.25 4.25 0 0 0 1.738 2.966c.488.352 1.212.573 2.458.687 1.244.114 2.886.115 5.145.115h5.368c2.26 0 3.901-.001 5.145-.115 1.246-.114 1.97-.335 2.458-.687a4.25 4.25 0 0 0 1.738-2.965c.069-.599-.092-1.338-.602-2.481-.508-1.14-1.31-2.574-2.413-4.545l-2.684-4.793c-1.148-2.05-1.984-3.542-2.718-4.61-.737-1.072-1.3-1.61-1.859-1.861Zm-4.115-1.367a5.75 5.75 0 0 1 4.732 0c.943.425 1.7 1.245 2.478 2.379.778 1.131 1.647 2.683 2.77 4.69l2.725 4.865c1.08 1.928 1.915 3.42 2.455 4.631.54 1.216.836 2.257.721 3.262a5.75 5.75 0 0 1-2.35 4.012c-.821.591-1.875.842-3.2.964-1.32.12-3.03.12-5.24.12h-5.45c-2.21 0-3.92 0-5.24-.12-1.325-.122-2.379-.373-3.2-.964a5.75 5.75 0 0 1-2.35-4.012c-.115-1.005.18-2.046.721-3.262.54-1.21 1.376-2.703 2.455-4.631l2.725-4.865c1.123-2.007 1.992-3.559 2.77-4.69.779-1.134 1.535-1.954 2.478-2.38ZM14 10.05a.75.75 0 0 1 .75.75v4.667a.75.75 0 0 1-1.5 0V10.8a.75.75 0 0 1 .75-.75Zm0 8.75a.75.75 0 1 0 0-1.5.75.75 0 0 0 0 1.5Z"
    clip-rule="evenodd"
  />
</svg>
