<svg xmlns="http://www.w3.org/2000/svg" width="28" height="28" fill="none">
  <path
    fill="#545C6B"
    fill-rule="evenodd"
    d="M15.8 3.046a4.375 4.375 0 0 0-3.6 0c-.59.266-1.17.827-1.91 1.905C9.55 6.024 8.711 7.522 7.564 9.57l-2.684 4.793c-1.103 1.969-1.908 3.408-2.419 4.555-.511 1.15-.684 1.914-.611 2.546a4.375 4.375 0 0 0 1.789 3.052c.516.372 1.267.595 2.52.71 1.25.115 2.9.116 5.156.116h5.368c2.257 0 3.906-.001 5.156-.116 1.253-.115 2.004-.338 2.52-.71 1-.72 1.65-1.828 1.79-3.052.072-.632-.1-1.397-.612-2.546-.511-1.147-1.317-2.586-2.419-4.555L20.435 9.57c-1.147-2.048-1.986-3.546-2.724-4.62-.74-1.077-1.32-1.638-1.91-1.904Zm-4.115-1.14a5.625 5.625 0 0 1 4.63 0c.91.412 1.65 1.208 2.426 2.337.774 1.126 1.641 2.674 2.767 4.686l2.719 4.853c1.082 1.933 1.915 3.422 2.452 4.627.539 1.21.823 2.226.712 3.197a5.625 5.625 0 0 1-2.3 3.924c-.793.572-1.819.82-3.137.941-1.314.12-3.02.12-5.235.12H11.28c-2.215 0-3.921 0-5.235-.12-1.318-.12-2.344-.37-3.137-.94a5.625 5.625 0 0 1-2.3-3.925c-.111-.971.173-1.987.712-3.197.537-1.205 1.37-2.694 2.453-4.627L6.492 8.93c1.126-2.012 1.993-3.56 2.767-4.686.775-1.129 1.516-1.925 2.426-2.336ZM14 10.176c.345 0 .625.28.625.625v4.667a.625.625 0 1 1-1.25 0V10.8c0-.345.28-.625.625-.625Zm0 8.875a.625.625 0 1 0 0-1.25.625.625 0 0 0 0 1.25Z"
    clip-rule="evenodd"
  />
</svg>
