<svg xmlns="http://www.w3.org/2000/svg" width="28" height="28" fill="none">
  <path
    fill="#545C6B"
    fill-rule="evenodd"
    d="M4.436 3.146a.5.5 0 1 0-.707.708l4.975 4.975c-.13.004-.302.004-.548.004H7.492c-.998 0-1.602 0-2.111.137a4 4 0 0 0-2.829 2.828c-.136.51-.136 1.113-.136 2.111v.181c0 1 0 1.603.136 2.112a4 4 0 0 0 2.829 2.828c.51.137 1.113.137 2.11.137H8.157c.519 0 .708.002.877.037.35.071.672.243.926.495.123.122.23.278.517.71l.01.014c.69 1.035 1.22 1.83 1.647 2.4.414.551.792.978 1.19 1.175a2.833 2.833 0 0 0 3.715-1.124c.222-.386.3-.95.338-1.639.04-.71.04-1.666.04-2.91v-.785l7.313 7.314a.5.5 0 0 0 .707-.708l-21-21Zm4.797 6.63c.112-.023.223-.052.33-.088l6.853 6.852v1.767c0 1.265 0 2.193-.038 2.872-.04.706-.118 1.042-.206 1.196a1.833 1.833 0 0 1-2.404.728c-.16-.08-.41-.316-.835-.88-.408-.545-.923-1.317-1.625-2.37l-.03-.044c-.247-.371-.411-.618-.615-.82a2.833 2.833 0 0 0-1.43-.765c-.28-.058-.577-.057-1.024-.057h-.626c-1.117 0-1.578-.005-1.943-.103a3 3 0 0 1-2.122-2.12c-.098-.366-.102-.827-.102-1.944s.004-1.578.102-1.943A3 3 0 0 1 5.64 9.936c.365-.098.826-.103 1.943-.103h.626c.447 0 .743 0 1.024-.057Zm7.805-4.65a2.833 2.833 0 0 0-3.714-1.125c-.302.15-.581.424-.861.758-.287.344-.616.802-1.008 1.375a.5.5 0 1 0 .825.565c.39-.571.696-.995.95-1.298.26-.312.43-.45.538-.504a1.833 1.833 0 0 1 2.404.728c.088.155.166.49.206 1.196.038.68.038 1.607.038 2.872v1.974a.5.5 0 0 0 1 0V9.675c0-1.244 0-2.2-.04-2.91-.038-.689-.116-1.253-.338-1.639Zm4.13 1.596a.5.5 0 0 1 .694-.138c2.243 1.498 3.722 4.272 3.722 7.416 0 1.32-.26 2.572-.727 3.692-.18.433-.392.846-.631 1.236a.5.5 0 0 1-.853-.523c.212-.345.4-.712.56-1.097.417-.998.651-2.12.651-3.308 0-2.839-1.336-5.287-3.278-6.584a.5.5 0 0 1-.138-.694ZM20 11.39a.5.5 0 0 1 .694-.138c.848.566 1.389 1.6 1.389 2.749 0 .484-.096.945-.268 1.359a.5.5 0 0 1-.924-.385c.122-.292.192-.622.192-.974 0-.845-.398-1.552-.945-1.918A.5.5 0 0 1 20 11.39Z"
    clip-rule="evenodd"
  />
</svg>
