<svg xmlns="http://www.w3.org/2000/svg" width="28" height="28" fill="none">
  <path
    fill="#545C6B"
    fill-rule="evenodd"
    d="M4.613 2.97a.75.75 0 0 0-1.06 1.06l4.552 4.553h-.644c-.968 0-1.603 0-2.145.145a4.25 4.25 0 0 0-3.005 3.005c-.145.542-.145 1.178-.145 2.145v.244c0 .967 0 1.603.145 2.145a4.25 4.25 0 0 0 3.005 3.005c.542.145 1.177.145 2.145.145h.695c.53 0 .688.003.827.032.303.061.58.21.8.427.1.1.192.23.485.67l.015.023c.686 1.029 1.219 1.828 1.65 2.404.412.548.82 1.022 1.28 1.25 1.459.723 3.23.187 4.042-1.224.255-.444.333-1.065.37-1.75.041-.718.041-1.679.041-2.916v-.189l6.886 6.886a.75.75 0 0 0 1.061-1.06l-21-21Zm4.67 7.051c.07-.014.14-.031.21-.05l6.673 6.673v1.663c0 1.268 0 2.187-.038 2.859-.04.709-.117.988-.173 1.084-.418.725-1.326 1-2.076.629-.1-.05-.32-.238-.746-.807-.403-.537-.913-1.302-1.617-2.357l-.038-.057c-.239-.359-.417-.626-.639-.846a3.083 3.083 0 0 0-1.556-.833c-.306-.063-.627-.063-1.058-.062H7.583c-1.134 0-1.553-.007-1.879-.094a2.75 2.75 0 0 1-1.944-1.945c-.088-.325-.094-.745-.094-1.878s.006-1.553.094-1.878a2.75 2.75 0 0 1 1.944-1.945c.326-.087.745-.094 1.879-.094H8.225c.431 0 .752 0 1.058-.062Zm7.972-5.02a3.083 3.083 0 0 0-4.042-1.224c-.35.174-.657.481-.942.822-.296.353-.63.82-1.023 1.394a.75.75 0 0 0 1.239.847c.39-.57.689-.985.934-1.279.257-.306.399-.41.458-.44a1.583 1.583 0 0 1 2.076.629c.056.096.134.375.173 1.085.038.67.038 1.59.038 2.858v1.974a.75.75 0 0 0 1.5 0v-2c0-1.237 0-2.198-.04-2.916-.038-.685-.116-1.306-.371-1.75Zm3.705 1.583A.75.75 0 0 1 22 6.376C24.32 7.924 25.834 10.78 25.834 14a9.844 9.844 0 0 1-.747 3.789c-.185.444-.402.87-.648 1.27a.75.75 0 0 1-1.279-.785c.205-.333.387-.689.543-1.063a8.344 8.344 0 0 0 .631-3.21c0-2.763-1.3-5.13-3.166-6.377a.75.75 0 0 1-.208-1.04Zm-1.168 4.666a.75.75 0 0 1 1.04-.207c.924.617 1.5 1.731 1.5 2.957 0 .517-.101 1.01-.287 1.455a.75.75 0 0 1-1.384-.577c.109-.261.172-.559.172-.878 0-.768-.362-1.395-.833-1.71a.75.75 0 0 1-.208-1.04Z"
    clip-rule="evenodd"
  />
</svg>
