<svg xmlns="http://www.w3.org/2000/svg" width="16" height="16" fill="none">
  <path
    fill="#545C6B"
    fill-rule="evenodd"
    d="M1.333 1.917a.75.75 0 0 1 .75.75v5.6c0 1.132 0 1.937.052 2.566.05.62.147 1.005.302 1.31a3.25 3.25 0 0 0 1.42 1.42c.305.155.69.251 1.31.302.63.051 1.434.052 2.566.052h1.6c1.288 0 1.785-.007 2.175-.11a3.25 3.25 0 0 0 2.298-2.299c.104-.39.11-.886.11-2.174 0-1.289-.006-1.786-.11-2.175a3.25 3.25 0 0 0-2.298-2.298c-.39-.104-.887-.11-2.175-.11H8a.75.75 0 1 1 0-1.5h1.46c1.118-.001 1.83-.001 2.436.161a4.75 4.75 0 0 1 3.358 3.359c.163.605.163 1.317.162 2.435v.255c0 1.118 0 1.83-.162 2.435a4.75 4.75 0 0 1-3.358 3.359c-.606.162-1.318.162-2.436.162H7.7c-1.092 0-1.958 0-2.655-.057-.714-.058-1.317-.18-1.868-.46A4.75 4.75 0 0 1 1.1 12.822c-.281-.55-.403-1.155-.461-1.868C.583 10.258.583 9.392.583 8.3V2.667a.75.75 0 0 1 .75-.75Z"
    clip-rule="evenodd"
  />
  <path
    fill="#545C6B"
    fill-rule="evenodd"
    d="M8.226 2.208c-.414-.118-.876-.124-2.093-.124H2.666a.583.583 0 1 0 0 1.166h7.142a3.142 3.142 0 0 0-.51-.506 3.25 3.25 0 0 0-1.072-.536ZM6.245.584c1.065 0 1.75 0 2.391.182a4.75 4.75 0 0 1 1.567.784c.531.402.942.951 1.581 1.803l.068.09.08.107a.75.75 0 0 1-.6 1.2H2.666a2.083 2.083 0 0 1 0-4.166h3.58ZM11.25 9.334A2.75 2.75 0 0 1 14 6.584h.333a.75.75 0 0 1 0 1.5H14a1.25 1.25 0 1 0 0 2.5h.333a.75.75 0 0 1 0 1.5H14a2.75 2.75 0 0 1-2.75-2.75Z"
    clip-rule="evenodd"
  />
</svg>
