<svg xmlns="http://www.w3.org/2000/svg" width="24" height="24" fill="none">
  <path
    fill="#545C6B"
    fill-rule="evenodd"
    d="M2 3a1 1 0 0 1 1 1v11.6c0 1.137 0 1.929.051 2.546.05.605.142.953.276 1.216a3 3 0 0 0 1.311 1.311c.263.134.611.226 1.216.276.617.05 1.41.051 2.546.051h7.2c1.137 0 1.929 0 2.546-.051.605-.05.953-.142 1.216-.276a3 3 0 0 0 1.311-1.311c.134-.263.226-.611.276-1.216.05-.617.051-1.41.051-2.546v-3.2c0-1.137 0-1.929-.051-2.546-.05-.605-.142-.953-.276-1.216a3 3 0 0 0-1.311-1.311c-.263-.134-.611-.226-1.216-.276C17.529 7.001 16.736 7 15.6 7H12a1 1 0 1 1 0-2h3.643c1.084 0 1.958 0 2.666.058.729.06 1.369.185 1.961.487a5 5 0 0 1 2.185 2.185c.302.592.428 1.233.487 1.961.058.708.058 1.582.058 2.666v3.286c0 1.084 0 1.958-.058 2.666-.06.729-.185 1.369-.487 1.961a5 5 0 0 1-2.185 2.185c-.592.302-1.232.428-1.961.487C17.6 23 16.727 23 15.643 23H8.357c-1.084 0-1.958 0-2.666-.058-.728-.06-1.369-.185-1.961-.487a5 5 0 0 1-2.185-2.185c-.302-.592-.428-1.232-.487-1.961C1 17.6 1 16.727 1 15.643V4a1 1 0 0 1 1-1Z"
    clip-rule="evenodd"
  />
  <path
    fill="#545C6B"
    fill-rule="evenodd"
    d="M12.824 3.115C12.452 3.01 12.03 3 10.8 3H4a1 1 0 1 0 0 2h11c-.648-.862-.896-1.169-1.187-1.39a3 3 0 0 0-.99-.495ZM10.938 1c1.04 0 1.76 0 2.435.192a5 5 0 0 1 1.65.825c.559.424.99 1 1.614 1.833l.083.11L17.8 5.4A1 1 0 0 1 17 7H4a3 3 0 0 1 0-6h6.938ZM17 14a4 4 0 0 1 4-4h.5a1 1 0 1 1 0 2H21a2 2 0 1 0 0 4h.5a1 1 0 1 1 0 2H21a4 4 0 0 1-4-4Z"
    clip-rule="evenodd"
  />
</svg>
