<svg xmlns="http://www.w3.org/2000/svg" width="24" height="24" fill="none">
  <path
    fill="#545C6B"
    fill-rule="evenodd"
    d="M12.927 2.755c-.435-.124-.917-.13-2.127-.13H4a1.375 1.375 0 0 0 0 2.75h11.75l-.33-.44c-.726-.968-1.02-1.35-1.38-1.624a3.375 3.375 0 0 0-1.113-.556Zm-2.028-1.38c1.079 0 1.748 0 2.371.178a4.625 4.625 0 0 1 1.526.763c.516.392.918.927 1.565 1.79l.059.079 1.08 1.44a.625.625 0 0 1-.5 1H4a2.625 2.625 0 1 1 0-5.25h6.899Z"
    clip-rule="evenodd"
  />
  <path
    fill="#545C6B"
    fill-rule="evenodd"
    d="M2.625 4a.625.625 0 1 0-1.25 0v11.628c0 1.096 0 1.958.057 2.65.057.706.177 1.291.447 1.822A4.625 4.625 0 0 0 3.9 22.12c.53.271 1.116.39 1.822.448.692.057 1.554.057 2.65.057h7.256c1.096 0 1.958 0 2.65-.057.706-.057 1.291-.177 1.822-.447a4.624 4.624 0 0 0 2.02-2.021c.271-.53.39-1.116.448-1.822.057-.692.057-1.554.057-2.65v-3.256c0-1.096 0-1.958-.057-2.65-.057-.706-.177-1.291-.447-1.822A4.625 4.625 0 0 0 20.1 5.88c-.53-.271-1.116-.39-1.822-.448-.692-.057-1.554-.057-2.65-.057H12a.625.625 0 1 0 0 1.25h3.6c1.13 0 1.94 0 2.576.052.629.052 1.031.15 1.356.316.635.323 1.152.84 1.475 1.475.166.325.264.727.316 1.356.014.17.024.353.031.551H21a3.625 3.625 0 0 0 0 7.25h.354c-.007.198-.017.381-.031.551-.052.629-.15 1.031-.316 1.356a3.374 3.374 0 0 1-1.475 1.475c-.325.166-.727.264-1.356.316-.635.052-1.446.052-2.576.052H8.4c-1.13 0-1.94 0-2.576-.052-.629-.052-1.031-.15-1.356-.316a3.375 3.375 0 0 1-1.475-1.475c-.166-.325-.264-.727-.316-1.356-.052-.635-.052-1.446-.052-2.576V4Zm18.75 12.375v-4.75H21a2.375 2.375 0 1 0 0 4.75h.374Z"
    clip-rule="evenodd"
  />
</svg>
