<svg xmlns="http://www.w3.org/2000/svg" width="24" height="24" fill="none">
  <path
    fill="#545C6B"
    fill-rule="evenodd"
    d="M13.338 4.715a3.25 3.25 0 0 0-2.675 0c-.409.184-.84.585-1.426 1.437C8.655 7 7.99 8.186 7.07 9.828l-.747 1.335c-.884 1.58-1.522 2.719-1.925 3.623-.404.908-.52 1.469-.47 1.907a3.25 3.25 0 0 0 1.33 2.267c.358.258.903.431 1.893.522.986.09 2.292.091 4.102.091h1.495c1.81 0 3.115 0 4.101-.09.99-.091 1.535-.265 1.893-.523a3.25 3.25 0 0 0 1.33-2.267c.05-.438-.066-1-.47-1.907-.403-.904-1.04-2.044-1.925-3.623l-.747-1.335C16.01 8.186 15.345 7 14.763 6.152c-.585-.852-1.017-1.253-1.425-1.437Zm-3.293-1.367a4.75 4.75 0 0 1 3.91 0c.792.357 1.417 1.042 2.044 1.955.626.91 1.324 2.157 2.22 3.757l.787 1.405c.86 1.537 1.532 2.736 1.966 3.71.436.98.686 1.844.59 2.688a4.75 4.75 0 0 1-1.943 3.314c-.69.497-1.565.701-2.633.799-1.063.098-2.437.098-4.198.098h-1.576c-1.76 0-3.135 0-4.198-.098-1.068-.098-1.943-.302-2.633-.799a4.75 4.75 0 0 1-1.942-3.314c-.097-.844.153-1.708.59-2.687.433-.975 1.105-2.174 1.965-3.71l.787-1.406c.896-1.6 1.594-2.846 2.22-3.757.627-.913 1.252-1.598 2.044-1.955ZM12 8.74a.75.75 0 0 1 .75.75v3.333a.75.75 0 1 1-1.5 0V9.49a.75.75 0 0 1 .75-.75Zm0 7.75a.75.75 0 1 0 0-1.5.75.75 0 0 0 0 1.5Z"
    clip-rule="evenodd"
  />
</svg>
