<svg xmlns="http://www.w3.org/2000/svg" width="24" height="24" fill="none">
  <path
    fill="#545C6B"
    fill-rule="evenodd"
    d="M13.389 2.517a3.375 3.375 0 0 0-2.778 0c-.44.199-.888.624-1.477 1.481-.586.853-1.254 2.045-2.173 3.686l-3.08 5.501c-.884 1.577-1.524 2.722-1.93 3.633-.407.914-.534 1.5-.48 1.972.108.944.61 1.8 1.38 2.355.386.278.96.454 1.955.545.993.091 2.306.092 4.113.092h6.162c1.807 0 3.12-.001 4.113-.092.996-.091 1.57-.267 1.954-.545a3.375 3.375 0 0 0 1.38-2.355c.055-.472-.072-1.058-.479-1.971-.406-.912-1.046-2.057-1.93-3.634l-3.08-5.501c-.919-1.64-1.587-2.833-2.173-3.686-.589-.857-1.037-1.282-1.477-1.48Zm-3.292-1.139a4.625 4.625 0 0 1 3.806 0c.76.343 1.37 1.004 1.993 1.912.622.906 1.318 2.149 2.217 3.753l3.114 5.56c.863 1.542 1.532 2.737 1.964 3.707.434.973.672 1.812.58 2.622a4.625 4.625 0 0 1-1.892 3.227c-.662.477-1.51.678-2.57.776-1.058.097-2.428.097-4.194.097h-6.23c-1.766 0-3.136 0-4.193-.097-1.061-.098-1.91-.299-2.571-.776a4.625 4.625 0 0 1-1.892-3.227c-.092-.81.146-1.649.58-2.622.432-.97 1.101-2.165 1.964-3.706l3.114-5.561c.899-1.604 1.594-2.847 2.217-3.753.624-.908 1.232-1.569 1.993-1.912ZM12 8.782c.345 0 .625.28.625.625v4a.625.625 0 1 1-1.25 0v-4c0-.346.28-.625.625-.625Zm0 7.375a.625.625 0 1 0 0-1.25.625.625 0 0 0 0 1.25Z"
    clip-rule="evenodd"
  />
</svg>
