<svg xmlns="http://www.w3.org/2000/svg" width="16" height="16" fill="none">
  <path
    fill="#545C6B"
    fill-rule="evenodd"
    d="M7.494 3.75a3.75 3.75 0 0 0-2.54.991l-.47.432a3.55 3.55 0 1 0 2.458 5.629c.302.206.666.327 1.059.327.393 0 .757-.12 1.058-.328a3.55 3.55 0 1 0 2.498-5.633l-.138-.155A3.75 3.75 0 0 0 8.612 3.75H7.494Zm1.09 3.732a3.54 3.54 0 0 1 .438-.832H6.98c.18.254.328.534.437.832a1.868 1.868 0 0 1 1.168 0ZM2.032 8.7a2.05 2.05 0 1 1 4.1 0 2.05 2.05 0 0 1-4.1 0Zm9.89-2.05a2.05 2.05 0 1 0 0 4.1 2.05 2.05 0 0 0 0-4.1ZM7.63 9.26a.37.37 0 1 1 .74 0 .37.37 0 0 1-.74 0Z"
    clip-rule="evenodd"
  />
</svg>
