<svg xmlns="http://www.w3.org/2000/svg" width="16" height="16" fill="none">
  <path
    fill="#545C6B"
    fill-rule="evenodd"
    d="M9.443 5.275h-2.78c.264-.099.545-.15.83-.15h1.12c.286 0 .567.052.83.15Zm-1.95-1.4c-.91 0-1.786.342-2.455.958l-.51.47a3.425 3.425 0 1 0 2.387 5.321c.298.239.675.38 1.086.38.41 0 .788-.141 1.086-.379A3.425 3.425 0 1 0 11.506 5.3l-.18-.204a3.625 3.625 0 0 0-2.714-1.221H7.494Zm1.169 3.769c.133-.413.343-.792.613-1.12H6.727c.27.328.48.707.613 1.12a1.74 1.74 0 0 1 1.322 0ZM1.906 8.7a2.175 2.175 0 1 1 4.35 0 2.175 2.175 0 0 1-4.35 0Zm10.015-2.175a2.175 2.175 0 1 0 0 4.35 2.175 2.175 0 0 0 0-4.35ZM7.506 9.26a.495.495 0 1 1 .99 0 .495.495 0 0 1-.99 0Z"
    clip-rule="evenodd"
  />
</svg>
