<svg xmlns="http://www.w3.org/2000/svg" width="24" height="24" fill="none">
  <path
    fill="#545C6B"
    fill-rule="evenodd"
    d="M10.617 6.5a4 4 0 0 0-1.942.503L6.24 8.356a4.601 4.601 0 1 0 4.407 7.295c.387.258.853.41 1.354.41.5 0 .965-.151 1.352-.41a4.6 4.6 0 1 0 4.429-7.292L15.78 7.108a4 4 0 0 0-2.12-.608h-3.043Zm3.822 6.4a2.6 2.6 0 0 1 2.563-2.6h.075a2.6 2.6 0 1 1-2.638 2.6Zm-7.517-2.6h.075a2.6 2.6 0 1 1-.075 0Zm4.638 3.32a.44.44 0 1 1 .88 0 .44.44 0 0 1-.88 0Z"
    clip-rule="evenodd"
  />
</svg>
