<svg xmlns="http://www.w3.org/2000/svg" width="24" height="24" fill="none">
  <path
    fill="#545C6B"
    fill-rule="evenodd"
    d="M10.257 5.75a4 4 0 0 0-1.943.503L5.334 7.91c-1.259.19-2.37.833-3.163 1.757l-.331.184h.18a5.2 5.2 0 1 0 8.363 6.177c.45.34 1.01.543 1.618.543.607 0 1.167-.201 1.616-.541a5.2 5.2 0 1 0 5.068-8.117l-2.486-1.554a4 4 0 0 0-2.12-.608h-3.822Zm4.423 7.3a3.2 3.2 0 0 1 3.145-3.2h.11a3.2 3.2 0 1 1-3.255 3.2Zm-8.615-3.2h.11a3.2 3.2 0 1 1-.11 0Zm5.256 4.04a.68.68 0 1 1 1.36 0 .68.68 0 0 1-1.36 0Z"
    clip-rule="evenodd"
  />
</svg>
