<svg xmlns="http://www.w3.org/2000/svg" width="16" height="16" fill="none">
  <path
    fill="#545C6B"
    fill-rule="evenodd"
    d="M10.291 5.539c0-2.478-3.213-3.45-4.587-1.39a1.254 1.254 0 0 1-1.043.56H4.192c-.485-.001-.837-.001-1.144.073a2.625 2.625 0 0 0-1.933 1.933c-.074.306-.074.659-.073 1.143V8.141c0 .485 0 .838.073 1.144a2.625 2.625 0 0 0 1.933 1.933c.307.074.66.074 1.144.074H4.66c.42 0 .81.21 1.043.558 1.375 2.061 4.587 1.088 4.587-1.389V5.539Zm-3.547-.696c.689-1.032 2.298-.545 2.298.696v4.922c0 1.24-1.61 1.728-2.298.695a2.504 2.504 0 0 0-2.083-1.114h-.389c-.6 0-.788-.005-.93-.04A1.375 1.375 0 0 1 2.33 8.99c-.034-.14-.038-.33-.038-.929v-.122c0-.6.004-.788.038-.93.122-.5.512-.89 1.013-1.012.141-.034.33-.039.93-.039h.388c.837 0 1.619-.418 2.083-1.115Zm5.07-1.19a.625.625 0 0 1 .867-.173c1.384.924 2.278 2.62 2.278 4.52 0 1.9-.894 3.596-2.278 4.52a.625.625 0 0 1-.694-1.04c1.007-.672 1.722-1.961 1.722-3.48s-.715-2.807-1.723-3.48a.625.625 0 0 1-.172-.867Zm-.667 2.666a.625.625 0 0 1 .867-.172c.586.392.944 1.093.944 1.853s-.358 1.461-.944 1.853a.625.625 0 1 1-.695-1.04c.21-.14.39-.434.39-.813 0-.38-.18-.673-.39-.814a.625.625 0 0 1-.172-.867Z"
    clip-rule="evenodd"
  />
</svg>
