<svg xmlns="http://www.w3.org/2000/svg" width="16" height="16" fill="none">
  <path
    fill="#545C6B"
    fill-rule="evenodd"
    d="M10.417 5.539c0-2.601-3.374-3.622-4.817-1.458-.21.314-.562.502-.939.502h-.478c-.475 0-.843 0-1.164.078A2.75 2.75 0 0 0 .994 6.686c-.078.321-.078.689-.077 1.164v.3c0 .476-.001.843.077 1.165a2.75 2.75 0 0 0 2.025 2.024c.321.078.689.078 1.164.078h.478c.377 0 .73.188.94.502 1.442 2.165 4.816 1.143 4.816-1.458V5.54Zm-3.569-.626c.62-.93 2.069-.49 2.069.626v4.922c0 1.117-1.449 1.556-2.069.626a2.629 2.629 0 0 0-2.187-1.17h-.389c-.607 0-.777-.006-.9-.035a1.25 1.25 0 0 1-.92-.92c-.03-.124-.035-.294-.035-.9v-.123c0-.607.005-.777.035-.9.11-.455.465-.81.92-.92.123-.03.293-.036.9-.036h.389c.879 0 1.7-.439 2.187-1.17Zm4.862-1.33a.75.75 0 0 1 1.04-.206c1.422.949 2.334 2.685 2.334 4.623 0 1.938-.912 3.675-2.334 4.624a.75.75 0 1 1-.833-1.247c.97-.648 1.667-1.896 1.667-3.377 0-1.48-.697-2.728-1.667-3.376a.75.75 0 0 1-.207-1.04Zm-.667 2.667a.75.75 0 0 1 1.04-.207c.624.417 1 1.159 1 1.957 0 .799-.376 1.54-1 1.957a.75.75 0 1 1-.833-1.247c.173-.116.333-.369.333-.71 0-.34-.16-.594-.333-.71a.75.75 0 0 1-.207-1.04Z"
    clip-rule="evenodd"
  />
</svg>
