<svg xmlns="http://www.w3.org/2000/svg" width="24" height="24" fill="none">
  <path
    fill="#545C6B"
    fill-rule="evenodd"
    d="M14.522 7.22c-.428-1.892-2.755-2.596-4.161-1.26a3.45 3.45 0 0 0-.397.497c-.151.214-.344.504-.595.88l-.004.007a4.06 4.06 0 0 1-.18.259 1.5 1.5 0 0 1-1.044.558 4.059 4.059 0 0 1-.314.006h-.565c-.542 0-.979 0-1.333.029-.364.03-.684.092-.98.243a2.5 2.5 0 0 0-1.093 1.093c-.15.296-.214.616-.244.98-.029.354-.029.792-.029 1.333v.31c0 .542 0 .979.03 1.333.03.364.092.684.243.98a2.5 2.5 0 0 0 1.093 1.093c.296.151.616.214.98.244.354.029.791.029 1.333.029h.565c.19 0 .255 0 .314.005a1.5 1.5 0 0 1 1.044.559c.037.046.074.1.18.259l.004.006c.25.376.444.666.595.88.145.208.275.38.397.497 1.406 1.337 3.733.632 4.16-1.26.038-.164.05-.38.056-.633.007-.262.007-.61.007-1.063V8.916c0-.452 0-.8-.007-1.063a3.451 3.451 0 0 0-.055-.632Zm-3.472-.535a1.5 1.5 0 0 1 2.496.756c.013.054.025.177.032.436.006.25.006.586.006 1.047v6.153c0 .46 0 .797-.006 1.046-.007.26-.02.382-.031.436a1.5 1.5 0 0 1-2.497.756 2.72 2.72 0 0 1-.268-.346c-.143-.204-.33-.483-.585-.867l-.012-.018c-.09-.134-.15-.226-.218-.31a2.5 2.5 0 0 0-1.74-.931c-.107-.01-.218-.01-.379-.01h-.564c-.569 0-.965 0-1.273-.025-.303-.025-.477-.07-.608-.138a1.5 1.5 0 0 1-.656-.655c-.067-.132-.113-.306-.138-.609-.025-.308-.026-.704-.026-1.273v-.266c0-.568 0-.965.026-1.273.025-.303.07-.476.138-.608a1.5 1.5 0 0 1 .656-.656c.131-.067.305-.113.608-.138.308-.025.704-.025 1.272-.025h.565c.161 0 .272 0 .379-.01a2.5 2.5 0 0 0 1.74-.93c.067-.085.129-.177.218-.31l.012-.019c.255-.383.442-.663.585-.867.15-.213.228-.307.268-.346Zm5.95.038a.5.5 0 0 1 .694-.139c1.645 1.1 2.723 3.127 2.723 5.416 0 2.29-1.078 4.317-2.723 5.416a.5.5 0 1 1-.555-.832c1.344-.897 2.278-2.6 2.278-4.584 0-1.984-.934-3.686-2.278-4.584A.5.5 0 0 1 17 6.723Zm-.832 3.333a.5.5 0 0 1 .693-.138c.649.433 1.056 1.218 1.056 2.082 0 .865-.407 1.65-1.056 2.083a.5.5 0 0 1-.555-.832c.347-.232.61-.691.61-1.25 0-.56-.263-1.02-.61-1.252a.5.5 0 0 1-.138-.693Z"
    clip-rule="evenodd"
  />
</svg>
