<svg xmlns="http://www.w3.org/2000/svg" width="24" height="24" fill="none">
  <path
    fill="#545C6B"
    fill-rule="evenodd"
    d="M14.766 7.166c-.471-2.082-3.03-2.857-4.578-1.386a3.669 3.669 0 0 0-.429.533c-.152.217-.347.51-.596.883l-.006.01a3.919 3.919 0 0 1-.167.24 1.25 1.25 0 0 1-.87.466 3.93 3.93 0 0 1-.293.005h-.574c-.534 0-.98 0-1.344.03-.38.03-.737.098-1.074.27a2.75 2.75 0 0 0-1.202 1.202c-.172.337-.239.694-.27 1.073-.03.365-.03.81-.03 1.345v.327c0 .534 0 .98.03 1.344.031.38.098.737.27 1.074a2.75 2.75 0 0 0 1.202 1.202c.337.172.694.239 1.074.27.364.03.81.03 1.344.03h.574c.194 0 .247 0 .293.004.342.03.656.198.87.466.029.036.059.08.167.242l.006.009c.249.373.444.665.596.883.144.205.287.398.43.533 1.546 1.47 4.106.696 4.577-1.386a3.67 3.67 0 0 0 .061-.682c.007-.265.007-.616.007-1.065V8.913c0-.449 0-.8-.007-1.065a3.67 3.67 0 0 0-.061-.682Zm1.194 2.751A.75.75 0 0 1 17 9.71c.724.484 1.167 1.35 1.167 2.29 0 .941-.443 1.807-1.167 2.29a.75.75 0 0 1-.833-1.247c.272-.181.5-.56.5-1.042 0-.484-.228-.862-.5-1.043a.75.75 0 0 1-.207-1.04Zm1.873-3.54A.75.75 0 1 0 17 7.624c1.269.847 2.167 2.469 2.167 4.377 0 1.907-.898 3.529-2.167 4.376a.75.75 0 1 0 .833 1.247c1.72-1.149 2.834-3.258 2.834-5.623 0-2.366-1.114-4.475-2.834-5.624Z"
    clip-rule="evenodd"
  />
</svg>
