<svg xmlns="http://www.w3.org/2000/svg" width="24" height="24" fill="none">
  <path
    fill="#545C6B"
    fill-rule="evenodd"
    d="M14.775 4.296a2.625 2.625 0 0 0-3.441-1.042c-.39.193-.737.596-1.09 1.066-.37.493-.827 1.178-1.415 2.06l-.012.019c-.251.376-.33.49-.419.577-.19.189-.431.318-.694.372-.121.024-.26.027-.712.027h-.595c-.83 0-1.373 0-1.835.124a3.625 3.625 0 0 0-2.563 2.563c-.124.462-.124 1.005-.124 1.836v.205c0 .831 0 1.373.124 1.836a3.625 3.625 0 0 0 2.563 2.563c.462.124 1.004.124 1.835.123h.595c.452 0 .591.003.712.028.263.054.504.183.694.372.088.087.168.2.419.577l.012.018c.588.883 1.045 1.568 1.414 2.06.354.47.702.873 1.09 1.067 1.243.616 2.75.16 3.442-1.042.217-.377.283-.905.316-1.492.034-.615.034-1.438.034-2.5V8.288c0-1.06 0-1.884-.034-2.5-.033-.586-.1-1.115-.316-1.49Zm-2.886.078a1.375 1.375 0 0 1 1.803.546c.05.087.117.33.15.938.033.575.033 1.364.033 2.45v7.384c0 1.087 0 1.875-.032 2.451-.034.608-.101.85-.151.938a1.375 1.375 0 0 1-1.803.546c-.09-.045-.28-.21-.646-.697-.346-.461-.783-1.117-1.386-2.021l-.032-.048c-.206-.309-.357-.536-.546-.724a2.625 2.625 0 0 0-1.325-.709c-.26-.053-.534-.053-.905-.053H6.5c-.97 0-1.333-.005-1.615-.08-.82-.22-1.46-.86-1.679-1.68-.076-.282-.081-.644-.081-1.615 0-.97.005-1.332.081-1.614.22-.82.86-1.46 1.68-1.68.281-.075.644-.08 1.614-.08h.549c.371 0 .644 0 .905-.054a2.625 2.625 0 0 0 1.325-.709c.189-.187.34-.415.546-.723l.032-.048c.603-.904 1.04-1.56 1.386-2.021.366-.487.556-.652.646-.697Zm6.091 1.28a.625.625 0 0 1 .867-.173c1.982 1.323 3.278 3.765 3.278 6.52 0 2.754-1.296 5.196-3.278 6.52a.625.625 0 0 1-.694-1.04c1.605-1.072 2.722-3.108 2.722-5.48 0-2.374-1.117-4.409-2.722-5.48a.625.625 0 0 1-.173-.868Zm-1 4a.625.625 0 0 1 .867-.173c.786.524 1.278 1.474 1.278 2.52 0 1.045-.492 1.994-1.278 2.52a.625.625 0 0 1-.694-1.04c.41-.274.722-.817.722-1.48 0-.665-.313-1.207-.722-1.48a.625.625 0 0 1-.173-.868Z"
    clip-rule="evenodd"
  />
</svg>
