<svg xmlns="http://www.w3.org/2000/svg" width="16" height="16" fill="none">
  <path
    fill="#545C6B"
    fill-rule="evenodd"
    d="M2.686 1.646a.5.5 0 1 0-.707.708l2.48 2.48h-.203c-.546 0-.918-.001-1.237.085a2.5 2.5 0 0 0-1.768 1.767c-.085.32-.085.691-.085 1.237v.154c0 .546 0 .918.085 1.237a2.5 2.5 0 0 0 1.768 1.768c.32.085.691.085 1.237.085h.404c.306 0 .388.002.459.017.16.032.305.11.42.225.052.05.1.118.269.372l.01.014c.39.587.696 1.045.944 1.375.234.313.477.597.756.735.868.43 1.92.112 2.404-.727.155-.27.2-.642.221-1.032.022-.4.023-.93.023-1.606l3.813 3.814a.5.5 0 0 0 .707-.708l-12-12Zm2.633 4.15c.028-.005.056-.012.084-.019L9.166 9.54v.921c0 .726 0 1.249-.021 1.63-.023.406-.068.55-.09.588a.833.833 0 0 1-1.093.33c-.04-.02-.156-.113-.4-.44-.23-.304-.52-.74-.922-1.343l-.024-.036c-.134-.201-.24-.36-.372-.491a1.833 1.833 0 0 0-.925-.495c-.183-.038-.373-.038-.616-.037h-.37c-.652 0-.88-.005-1.055-.051a1.5 1.5 0 0 1-1.06-1.061C2.17 8.88 2.165 8.652 2.165 8c0-.652.004-.88.051-1.055a1.5 1.5 0 0 1 1.06-1.06c.176-.047.404-.052 1.056-.052h.37c.243 0 .433 0 .616-.037Zm4.603-2.974a1.833 1.833 0 0 0-2.404-.727c-.214.106-.397.29-.561.487-.171.205-.364.474-.589.803a.5.5 0 1 0 .826.564c.223-.326.392-.56.53-.725.145-.174.218-.223.238-.234a.833.833 0 0 1 1.093.331c.022.039.067.182.09.588.02.381.021.904.021 1.63v1.128a.5.5 0 0 0 1 0V5.522c0-.705 0-1.256-.023-1.668-.022-.39-.066-.762-.221-1.032Zm1.996.9a.5.5 0 0 1 .694-.138c1.346.9 2.222 2.554 2.222 4.416 0 .782-.154 1.526-.432 2.192a5.313 5.313 0 0 1-.376.736.5.5 0 0 1-.852-.523c.115-.187.217-.387.305-.597A4.696 4.696 0 0 0 13.834 8c0-1.557-.733-2.886-1.778-3.584a.5.5 0 0 1-.138-.694ZM11.25 6.39a.5.5 0 0 1 .694-.138c.549.366.889 1.027.889 1.749 0 .305-.06.596-.17.859a.5.5 0 1 1-.923-.385c.059-.14.093-.301.093-.474 0-.417-.197-.752-.445-.918a.5.5 0 0 1-.138-.693Z"
    clip-rule="evenodd"
  />
</svg>
