<svg xmlns="http://www.w3.org/2000/svg" width="16" height="16" fill="none">
  <path
    fill="#545C6B"
    fill-rule="evenodd"
    d="M2.775 1.558a.625.625 0 1 0-.884.884l2.266 2.266c-.49 0-.853.005-1.17.09A2.625 2.625 0 0 0 1.13 6.654c-.09.336-.09.724-.089 1.258v.176c0 .534 0 .922.09 1.258.242.906.95 1.614 1.856 1.856.335.09.724.09 1.257.09H4.66c.311 0 .378.003.434.014.135.028.26.094.357.191.04.04.08.095.253.353l.012.018c.389.583.696 1.044.946 1.377.233.31.491.62.8.772.927.46 2.052.12 2.568-.777.172-.299.216-.699.238-1.087.019-.342.022-.777.023-1.31l3.6 3.599a.625.625 0 0 0 .884-.884l-12-12Zm2.569 4.36.02-.003L9.04 9.592v.87c0 .726 0 1.245-.021 1.622-.01.187-.025.32-.043.416a.593.593 0 0 1-.031.118v-.002a.708.708 0 0 1-.928.282h.002-.001a.594.594 0 0 1-.09-.08 3.364 3.364 0 0 1-.267-.323 33.38 33.38 0 0 1-.918-1.338l-.027-.04a3.18 3.18 0 0 0-.385-.507 1.958 1.958 0 0 0-.988-.529c-.196-.04-.399-.04-.636-.04h-.375c-.66 0-.868-.005-1.023-.046a1.375 1.375 0 0 1-.972-.972C2.296 8.868 2.29 8.66 2.29 8c0-.66.005-.868.047-1.023.127-.474.498-.845.972-.972.155-.041.362-.047 1.023-.047h.375c.237 0 .44 0 .636-.04ZM10.03 2.76a1.958 1.958 0 0 0-2.567-.777c-.239.118-.435.32-.602.519-.175.21-.371.483-.596.812a.625.625 0 1 0 1.032.705c.222-.325.39-.555.523-.715.13-.155.191-.197.198-.202a.708.708 0 0 1 .929.282l-.001-.002a.594.594 0 0 1 .03.118c.019.096.033.23.044.416.02.377.021.896.021 1.623v1.128a.625.625 0 1 0 1.25 0v-1.15c0-.7 0-1.254-.023-1.67-.022-.388-.066-.788-.238-1.087Zm1.784.893a.625.625 0 0 1 .867-.173C14.065 4.404 14.96 6.1 14.96 8c0 .799-.158 1.559-.442 2.24-.11.264-.238.516-.384.754a.625.625 0 0 1-1.066-.654 4.2 4.2 0 0 0 .296-.58c.22-.53.346-1.126.346-1.76 0-1.519-.715-2.807-1.722-3.48a.625.625 0 0 1-.173-.867Zm-.668 2.666a.625.625 0 0 1 .867-.172c.587.392.945 1.093.945 1.853 0 .321-.064.629-.18.907a.625.625 0 0 1-1.153-.48c.052-.126.083-.27.083-.427 0-.38-.179-.673-.39-.814a.625.625 0 0 1-.172-.867Z"
    clip-rule="evenodd"
  />
</svg>
