<svg xmlns="http://www.w3.org/2000/svg" width="28" height="28" fill="none">
  <path
    fill="#545C6B"
    fill-rule="evenodd"
    d="M4.525 3.058a.625.625 0 1 0-.884.884l4.766 4.766H7.475c-.982 0-1.6 0-2.127.14a4.125 4.125 0 0 0-2.916 2.918c-.141.525-.141 1.145-.141 2.127v.214c0 .982 0 1.602.14 2.127a4.125 4.125 0 0 0 2.917 2.917c.526.141 1.145.14 2.127.14H8.156c.524 0 .698.004.852.035.327.067.626.227.863.462.112.11.21.254.501.69l.012.018c.688 1.032 1.22 1.83 1.65 2.402.412.55.805 1 1.234 1.212 1.4.695 3.099.18 3.878-1.174.24-.415.317-1.007.355-1.694.04-.714.04-1.673.04-2.913v-.487l7.1 7.1a.625.625 0 0 0 .884-.884l-21-21Zm4.733 6.84a2.96 2.96 0 0 0 .27-.068l6.763 6.762v1.715c0 1.267 0 2.19-.038 2.865-.04.708-.118 1.015-.19 1.14a1.708 1.708 0 0 1-2.24.679c-.13-.065-.364-.277-.79-.844-.406-.54-.918-1.309-1.62-2.363l-.035-.05c-.243-.366-.414-.623-.627-.834a2.957 2.957 0 0 0-1.493-.799c-.293-.06-.602-.06-1.04-.06h-.635c-1.126 0-1.566-.005-1.911-.097a2.875 2.875 0 0 1-2.033-2.033c-.093-.346-.098-.786-.098-1.911s.005-1.565.098-1.91a2.875 2.875 0 0 1 2.033-2.034c.345-.092.785-.098 1.91-.098H8.219c.438 0 .747 0 1.04-.06Zm7.888-4.834a2.958 2.958 0 0 0-3.878-1.175c-.326.162-.619.453-.901.79-.292.348-.623.81-1.016 1.385a.625.625 0 0 0 1.032.705c.39-.57.693-.99.943-1.288.258-.309.414-.43.498-.472.808-.4 1.789-.104 2.24.678.071.126.15.433.19 1.14.037.676.037 1.6.037 2.866v1.974a.625.625 0 0 0 1.25 0V9.67c0-1.24 0-2.199-.04-2.913-.038-.687-.116-1.28-.355-1.694Zm3.918 1.589a.625.625 0 0 1 .867-.173c2.28 1.523 3.778 4.338 3.778 7.52a9.72 9.72 0 0 1-.737 3.74 9.06 9.06 0 0 1-.64 1.254.625.625 0 0 1-1.065-.654c.208-.34.393-.7.551-1.08.41-.983.641-2.088.641-3.26 0-2.8-1.318-5.209-3.222-6.48a.625.625 0 0 1-.173-.867Zm-1.168 4.667a.625.625 0 0 1 .867-.173c.886.591 1.445 1.665 1.445 2.853 0 .5-.099.978-.278 1.407a.625.625 0 0 1-1.154-.48c.116-.277.182-.591.182-.927 0-.806-.38-1.474-.889-1.814a.625.625 0 0 1-.173-.867Z"
    clip-rule="evenodd"
  />
</svg>
