<svg xmlns="http://www.w3.org/2000/svg" width="16" height="16" fill="none">
  <path
    fill="#545C6B"
    fill-rule="evenodd"
    d="M11.498 1.25H4.504c-.535 0-.98 0-1.345.03-.38.03-.736.098-1.073.27A2.75 2.75 0 0 0 .884 2.752c-.172.337-.24.693-.27 1.073-.03.365-.03.81-.03 1.345v5.02a.75.75 0 0 0 1.5 0V6.083h11.833V10.8c0 .572 0 .957-.024 1.252-.024.288-.066.425-.112.516a1.25 1.25 0 0 1-.546.546c-.09.046-.228.088-.515.111-.296.024-.68.025-1.253.025H7.334a.75.75 0 0 0 0 1.5h4.164c.534 0 .98 0 1.344-.03.38-.03.736-.098 1.074-.27a2.751 2.751 0 0 0 1.202-1.201c.171-.338.239-.694.27-1.074.03-.365.03-.81.03-1.345V5.17c0-.535 0-.98-.03-1.345-.031-.38-.099-.736-.27-1.073a2.75 2.75 0 0 0-1.202-1.202c-.338-.172-.694-.24-1.074-.27-.364-.03-.81-.03-1.344-.03Zm2.417 3.333H2.085c.003-.256.01-.461.024-.636.023-.287.065-.424.111-.514a1.25 1.25 0 0 1 .546-.547c.091-.046.228-.088.515-.111.296-.024.68-.025 1.253-.025h6.933c.573 0 .957 0 1.253.025.287.023.424.065.515.111.235.12.426.311.546.547.046.09.088.227.112.514.014.175.02.38.022.636Zm-9.384 6.22a.75.75 0 0 0-1.06 1.06l.052.053H1.334a.75.75 0 0 0 0 1.5h2.19l-.054.053a.75.75 0 0 0 1.061 1.061l1.333-1.333a.75.75 0 0 0 0-1.061l-1.333-1.333Zm5.47-3.553a.75.75 0 1 0 0 1.5h2a.75.75 0 0 0 0-1.5h-2Z"
    clip-rule="evenodd"
  />
</svg>
