<svg xmlns="http://www.w3.org/2000/svg" width="24" height="24" fill="none">
  <path
    fill="#545C6B"
    fill-rule="evenodd"
    d="M17.241 2H6.76c-.805 0-1.47 0-2.01.044-.563.046-1.08.145-1.565.392a4 4 0 0 0-1.748 1.748c-.247.485-.346 1.002-.392 1.564C1 6.29 1 6.954 1 7.758v7.528a1 1 0 1 0 2 0V9h18v7.2c0 .857 0 1.439-.038 1.889-.035.438-.1.663-.18.819a2 2 0 0 1-.874.874c-.156.08-.38.145-.819.18-.45.037-1.032.038-1.889.038H11a1 1 0 1 0 0 2h6.241c.805 0 1.47 0 2.01-.044.563-.046 1.08-.145 1.565-.392a4 4 0 0 0 1.748-1.748c.247-.485.346-1.002.392-1.564.044-.541.044-1.206.044-2.01V7.758c0-.805 0-1.47-.044-2.01-.046-.563-.145-1.08-.392-1.565a4 4 0 0 0-1.748-1.748c-.485-.247-1.002-.346-1.564-.392C18.71 2 18.046 2 17.242 2Zm3.757 5H3.002c.003-.446.012-.795.036-1.089.035-.438.1-.663.18-.819a2 2 0 0 1 .874-.874c.156-.08.38-.145.819-.18C5.361 4 5.943 4 6.8 4h10.4c.857 0 1.439 0 1.889.038.438.035.663.1.819.18a2 2 0 0 1 .874.874c.08.156.145.38.18.819.024.294.033.643.036 1.089Zm-14.29 9.293a1 1 0 0 0-1.415 1.414l.293.293H2a1 1 0 1 0 0 2h3.586l-.293.293a1 1 0 1 0 1.414 1.414l2-2a1 1 0 0 0 0-1.414l-2-2ZM15 11a1 1 0 1 0 0 2h3a1 1 0 1 0 0-2h-3Z"
    clip-rule="evenodd"
  />
</svg>
