<svg xmlns="http://www.w3.org/2000/svg" width="28" height="28" fill="none">
  <path
    fill="#545C6B"
    fill-rule="evenodd"
    d="M7.102 2.75h13.797c.813 0 1.469 0 2 .043.546.045 1.027.14 1.47.366a3.75 3.75 0 0 1 1.64 1.639c.226.444.32.924.365 1.47.043.531.043 1.187.043 2v11.464c0 .813 0 1.469-.043 2-.045.546-.14 1.026-.365 1.47a3.75 3.75 0 0 1-1.64 1.64c-.443.226-.924.32-1.47.365-.531.043-1.187.043-2 .043h-8.065a.75.75 0 0 1 0-1.5h8.033c.853 0 1.447 0 1.91-.038.453-.038.714-.107.912-.207a2.25 2.25 0 0 0 .983-.983c.1-.198.17-.459.207-.913.038-.462.038-1.057.038-1.909v-9.183c0-.56 0-.84-.109-1.054a1 1 0 0 0-.437-.437c-.214-.11-.494-.11-1.054-.11H4.684c-.56 0-.84 0-1.054.11a1 1 0 0 0-.437.437c-.109.214-.109.494-.109 1.054v7.316a.75.75 0 0 1-1.5 0V8.268c0-.813 0-1.469.043-2 .045-.546.14-1.026.366-1.47a3.75 3.75 0 0 1 1.639-1.64c.444-.226.924-.32 1.47-.365.531-.043 1.187-.043 2-.043ZM6.47 19.303a.75.75 0 0 1 1.061 0l2.333 2.333a.75.75 0 0 1 0 1.06L7.531 25.03a.75.75 0 1 1-1.06-1.06l1.052-1.054H2.334a.75.75 0 1 1 0-1.5h5.19L6.47 20.363a.75.75 0 0 1 0-1.06ZM17.5 13.25a.75.75 0 1 0 0 1.5H21a.75.75 0 0 0 0-1.5h-3.5Z"
    clip-rule="evenodd"
  />
</svg>
