<svg xmlns="http://www.w3.org/2000/svg" width="28" height="28" fill="none">
  <path
    fill="#545C6B"
    fill-rule="evenodd"
    d="M20.895 2.875H7.107c-.817 0-1.469 0-1.994.043-.54.044-1.001.136-1.425.352a3.625 3.625 0 0 0-1.584 1.584c-.216.424-.308.886-.352 1.425-.043.525-.043 1.177-.043 1.994v9.56a.625.625 0 1 0 1.25 0V9.958h22.083V19.7c0 .85 0 1.45-.039 1.92-.037.461-.108.74-.22.958-.227.447-.59.81-1.038 1.038-.218.111-.497.183-.958.22-.47.039-1.07.039-1.92.039h-8.033a.625.625 0 1 0 0 1.25h8.06c.818 0 1.469 0 1.995-.043.538-.044 1-.136 1.424-.352a3.625 3.625 0 0 0 1.584-1.584c.216-.424.308-.886.352-1.425.043-.526.043-1.177.043-1.994V8.273c0-.817 0-1.469-.043-1.994-.044-.54-.136-1.001-.352-1.425a3.625 3.625 0 0 0-1.584-1.584c-.424-.216-.886-.308-1.424-.352-.526-.043-1.177-.043-1.994-.043Zm4.147 5.833H2.96V8.3c0-.85 0-1.45.039-1.92.037-.461.109-.74.22-.958.228-.447.59-.81 1.038-1.038.218-.111.497-.182.958-.22.47-.039 1.07-.039 1.92-.039h13.733c.85 0 1.45 0 1.92.039.461.038.74.109.959.22.446.228.81.59 1.038 1.038.11.218.182.497.22.958.038.47.038 1.07.038 1.92v.408Zm-17.6 10.683a.625.625 0 1 0-.883.884l1.266 1.266H2.334a.625.625 0 0 0 0 1.25h5.491L6.56 24.058a.625.625 0 0 0 .884.884l2.333-2.334a.625.625 0 0 0 0-.884l-2.333-2.333Zm10.059-6.016a.625.625 0 1 0 0 1.25H21a.625.625 0 0 0 0-1.25h-3.5Z"
    clip-rule="evenodd"
  />
</svg>
