<svg xmlns="http://www.w3.org/2000/svg" width="16" height="16" fill="none">
  <path
    fill="#545C6B"
    fill-rule="evenodd"
    d="M1.833 4a2.167 2.167 0 1 1 4.334 0 2.167 2.167 0 0 1-4.333 0ZM4 .833a3.167 3.167 0 1 0 0 6.334A3.167 3.167 0 0 0 4 .833ZM9.834 4a2.167 2.167 0 1 1 4.333 0 2.167 2.167 0 0 1-4.333 0ZM12 .833a3.167 3.167 0 1 0 0 6.334 3.167 3.167 0 0 0 0-6.334Zm0 9a2.167 2.167 0 1 0 0 4.334 2.167 2.167 0 0 0 0-4.334ZM8.834 12a3.167 3.167 0 1 1 6.333 0 3.167 3.167 0 0 1-6.333 0Zm-7 0a2.167 2.167 0 1 1 4.333 0 2.167 2.167 0 0 1-4.333 0ZM4 8.833a3.167 3.167 0 1 0 0 6.334 3.167 3.167 0 0 0 0-6.334Z"
    clip-rule="evenodd"
  />
</svg>
