<svg xmlns="http://www.w3.org/2000/svg" width="24" height="24" fill="none">
  <path
    fill="#545C6B"
    fill-rule="evenodd"
    d="M4.417 7a2.583 2.583 0 1 1 5.166 0 2.583 2.583 0 0 1-5.167 0ZM7 2.917a4.083 4.083 0 1 0 0 8.166 4.083 4.083 0 0 0 0-8.166ZM14.416 7a2.583 2.583 0 1 1 5.167 0 2.583 2.583 0 0 1-5.166 0ZM17 2.917a4.083 4.083 0 1 0 0 8.166 4.083 4.083 0 0 0 0-8.166Zm0 11.5a2.583 2.583 0 1 0 0 5.166 2.583 2.583 0 0 0 0-5.166ZM12.916 17a4.083 4.083 0 1 1 8.167 0 4.083 4.083 0 0 1-8.166 0Zm-8.5 0a2.583 2.583 0 1 1 5.167 0 2.583 2.583 0 0 1-5.167 0ZM7 12.917a4.083 4.083 0 1 0 0 8.166 4.083 4.083 0 0 0 0-8.166Z"
    clip-rule="evenodd"
  />
</svg>
