<svg xmlns="http://www.w3.org/2000/svg" width="24" height="24" fill="none">
  <path
    fill="#545C6B"
    fill-rule="evenodd"
    d="M4.292 7a2.708 2.708 0 1 1 5.416 0 2.708 2.708 0 0 1-5.417 0ZM7 3.042a3.958 3.958 0 1 0 0 7.916 3.958 3.958 0 0 0 0-7.916ZM14.29 7a2.708 2.708 0 1 1 5.417 0 2.708 2.708 0 0 1-5.416 0ZM17 3.042a3.958 3.958 0 1 0 0 7.916 3.958 3.958 0 0 0 0-7.916Zm0 11.25a2.708 2.708 0 1 0 0 5.416 2.708 2.708 0 0 0 0-5.416ZM13.04 17a3.958 3.958 0 1 1 7.917 0 3.958 3.958 0 0 1-7.916 0Zm-8.75 0a2.708 2.708 0 1 1 5.417 0 2.708 2.708 0 0 1-5.417 0ZM7 13.042a3.958 3.958 0 1 0 0 7.916 3.958 3.958 0 0 0 0-7.916Z"
    clip-rule="evenodd"
  />
</svg>
