<svg xmlns="http://www.w3.org/2000/svg" width="28" height="28" fill="none">
  <path
    fill="#545C6B"
    fill-rule="evenodd"
    d="M2.833 7a4.167 4.167 0 1 1 8.334 0 4.167 4.167 0 0 1-8.333 0ZM7 1.833a5.167 5.167 0 1 0 0 10.334A5.167 5.167 0 0 0 7 1.833ZM16.834 7a4.167 4.167 0 1 1 8.333 0 4.167 4.167 0 0 1-8.334 0ZM21 1.833a5.167 5.167 0 1 0 0 10.334 5.167 5.167 0 0 0 0-10.334Zm0 15a4.167 4.167 0 1 0 0 8.334 4.167 4.167 0 0 0 0-8.334ZM15.834 21a5.167 5.167 0 1 1 10.333 0 5.167 5.167 0 0 1-10.334 0Zm-13 0a4.167 4.167 0 1 1 8.333 0 4.167 4.167 0 0 1-8.334 0ZM7 15.833a5.167 5.167 0 1 0 0 10.334 5.167 5.167 0 0 0 0-10.334Z"
    clip-rule="evenodd"
  />
</svg>
