<svg xmlns="http://www.w3.org/2000/svg" width="28" height="28" fill="none">
  <path
    fill="#545C6B"
    fill-rule="evenodd"
    d="M13.417 3.666c-5.385 0-9.75 4.365-9.75 9.75s4.365 9.75 9.75 9.75 9.75-4.365 9.75-9.75-4.366-9.75-9.75-9.75Zm-11.25 9.75c0-6.213 5.037-11.25 11.25-11.25s11.25 5.037 11.25 11.25c0 2.837-1.05 5.428-2.783 7.407l3.73 3.73a.75.75 0 0 1-1.061 1.06l-3.73-3.73a11.207 11.207 0 0 1-7.406 2.783c-6.213 0-11.25-5.037-11.25-11.25Zm12-3.5a.75.75 0 1 0-1.5 0v2.75h-2.75a.75.75 0 0 0 0 1.5h2.75v2.75a.75.75 0 0 0 1.5 0v-2.75h2.75a.75.75 0 1 0 0-1.5h-2.75v-2.75Z"
    clip-rule="evenodd"
  />
</svg>
