<svg xmlns="http://www.w3.org/2000/svg" width="24" height="24" fill="none">
  <path
    fill="#545C6B"
    fill-rule="evenodd"
    d="M2.5 6a3.5 3.5 0 1 1 7 0 3.5 3.5 0 0 1-7 0ZM6 1.5a4.5 4.5 0 1 0 0 9 4.5 4.5 0 0 0 0-9ZM14.5 6a3.5 3.5 0 1 1 7 0 3.5 3.5 0 0 1-7 0ZM18 1.5a4.5 4.5 0 1 0 0 9 4.5 4.5 0 0 0 0-9Zm0 13a3.5 3.5 0 1 0 0 7 3.5 3.5 0 0 0 0-7ZM13.5 18a4.5 4.5 0 1 1 9 0 4.5 4.5 0 0 1-9 0Zm-11 0a3.5 3.5 0 1 1 7 0 3.5 3.5 0 0 1-7 0ZM6 13.5a4.5 4.5 0 1 0 0 9 4.5 4.5 0 0 0 0-9Z"
    clip-rule="evenodd"
  />
</svg>
