<svg xmlns="http://www.w3.org/2000/svg" width="16" height="16" fill="none">
  <path
    fill="#545C6B"
    fill-rule="evenodd"
    d="M2.933.708H2.91c-.26 0-.492 0-.684.016a1.65 1.65 0 0 0-.63.161 1.625 1.625 0 0 0-.71.71 1.65 1.65 0 0 0-.162.63 8.997 8.997 0 0 0-.016.685V5.09c0 .26 0 .493.016.685.017.205.055.42.161.63.156.306.405.554.71.71.21.107.425.145.63.162.193.015.425.015.685.015h2.18c.26 0 .492 0 .684-.015a1.65 1.65 0 0 0 .63-.162c.306-.156.555-.404.71-.71a1.65 1.65 0 0 0 .162-.63c.016-.192.016-.424.016-.685V2.91c0-.26 0-.492-.016-.685a1.65 1.65 0 0 0-.161-.63 1.625 1.625 0 0 0-.71-.71 1.65 1.65 0 0 0-.63-.161A8.997 8.997 0 0 0 5.09.708H2.933ZM2 2.163a.375.375 0 0 1 .164-.164c.005-.002.037-.02.164-.03a8.42 8.42 0 0 1 .606-.011h2.134c.29 0 .47 0 .606.012.127.01.16.027.164.029.07.036.128.093.164.164.002.004.019.037.03.164.01.135.01.316.01.606v2.133c0 .29 0 .47-.01.606a.482.482 0 0 1-.03.165.375.375 0 0 1-.164.164.482.482 0 0 1-.164.029 8.414 8.414 0 0 1-.606.011H2.933c-.29 0-.47 0-.606-.011-.127-.01-.16-.027-.164-.03A.375.375 0 0 1 2 5.837c-.002-.005-.019-.038-.03-.165a8.42 8.42 0 0 1-.01-.606V2.933c0-.29 0-.47.01-.606.011-.127.028-.16.03-.164Zm.934 6.545H2.91c-.26 0-.492 0-.684.016a1.65 1.65 0 0 0-.63.161 1.625 1.625 0 0 0-.71.71 1.65 1.65 0 0 0-.162.63 9 9 0 0 0-.016.685V13.09c0 .26 0 .493.016.685.017.205.055.42.161.63.156.306.405.554.71.71.21.107.425.145.63.162.193.015.425.015.685.015h2.18c.26 0 .492 0 .684-.015.206-.017.42-.055.63-.162.306-.156.555-.404.71-.71a1.65 1.65 0 0 0 .162-.63c.016-.192.016-.424.016-.685V10.91c0-.26 0-.492-.016-.685a1.65 1.65 0 0 0-.161-.63 1.625 1.625 0 0 0-.71-.71 1.65 1.65 0 0 0-.63-.161c-.193-.016-.425-.016-.685-.016H2.933ZM2 10.163a.375.375 0 0 1 .164-.164c.005-.002.037-.02.164-.03a8.42 8.42 0 0 1 .606-.011h2.134c.29 0 .47 0 .606.012.127.01.16.027.164.029.07.036.128.093.164.164a.482.482 0 0 1 .03.164c.01.136.01.316.01.606v2.133c0 .29 0 .47-.01.606a.482.482 0 0 1-.03.165.375.375 0 0 1-.164.164c-.005.002-.037.018-.164.029a8.403 8.403 0 0 1-.606.011H2.933c-.29 0-.47 0-.606-.011a.483.483 0 0 1-.164-.03.375.375 0 0 1-.164-.164.482.482 0 0 1-.03-.164 8.419 8.419 0 0 1-.01-.606v-2.133c0-.29 0-.47.01-.606a.482.482 0 0 1 .03-.164Zm8.911-1.455h2.18c.26 0 .492 0 .684.016.206.016.42.054.63.161.306.156.555.405.71.71.107.21.145.425.162.63.016.193.016.425.016.685v2.18c0 .26 0 .492-.016.684-.017.205-.055.42-.162.63a1.625 1.625 0 0 1-.71.71c-.21.107-.424.145-.63.162a8.912 8.912 0 0 1-.684.015h-2.18c-.26 0-.492 0-.684-.015a1.648 1.648 0 0 1-.63-.162 1.625 1.625 0 0 1-.71-.71 1.651 1.651 0 0 1-.162-.63c-.016-.192-.016-.424-.016-.685V10.91c0-.26 0-.492.016-.685a1.65 1.65 0 0 1 .161-.63c.156-.305.405-.554.71-.71a1.65 1.65 0 0 1 .63-.161c.193-.016.425-.016.685-.016Zm-.747 1.29a.374.374 0 0 0-.164.165.482.482 0 0 0-.03.164 8.42 8.42 0 0 0-.01.606v2.133c0 .29 0 .47.01.606.011.127.028.16.03.164.036.071.093.128.164.165a.483.483 0 0 0 .164.029c.136.01.316.011.606.011h2.134c.29 0 .47 0 .606-.011a.481.481 0 0 0 .164-.03.375.375 0 0 0 .164-.163.483.483 0 0 0 .03-.165c.01-.135.01-.315.01-.606v-2.133c0-.29 0-.47-.01-.606a.481.481 0 0 0-.03-.164.375.375 0 0 0-.164-.164.482.482 0 0 0-.164-.03 8.422 8.422 0 0 0-.606-.011h-2.134c-.29 0-.47 0-.606.012a.482.482 0 0 0-.164.029Zm2.462-8.665a.625.625 0 1 0-1.25 0v2.042H9.333a.625.625 0 0 0 0 1.25h2.042v2.041a.625.625 0 1 0 1.25 0V4.625h2.042a.625.625 0 1 0 0-1.25h-2.042V1.333Z"
    clip-rule="evenodd"
  />
</svg>
