<svg xmlns="http://www.w3.org/2000/svg" width="24" height="24" fill="none">
  <path
    fill="#545C6B"
    fill-rule="evenodd"
    d="M19 2a1 1 0 1 0-2 0v3h-3a1 1 0 1 0 0 2h3v3a1 1 0 1 0 2 0V7h3a1 1 0 1 0 0-2h-3V2ZM3.6 1h-.032c-.252 0-.498 0-.706.017a2.022 2.022 0 0 0-.77.201 2 2 0 0 0-.874.874 2.022 2.022 0 0 0-.201.77C1 3.07 1 3.316 1 3.568v4.864c0 .252 0 .498.017.706.019.229.063.499.201.77a2 2 0 0 0 .874.874c.271.138.541.182.77.201.208.017.454.017.706.017h4.864c.252 0 .498 0 .706-.017.229-.019.499-.063.77-.201a2 2 0 0 0 .874-.874c.138-.271.182-.541.201-.77C11 8.93 11 8.684 11 8.432V3.568c0-.252 0-.498-.017-.706a2.022 2.022 0 0 0-.201-.77 2 2 0 0 0-.874-.874 2.022 2.022 0 0 0-.77-.201C8.93 1 8.684 1 8.432 1H3.6Zm-.59 2.025.001-.014h.014C3.14 3 3.303 3 3.6 3h4.8c.297 0 .459 0 .575.01l.014.001v.014C9 3.14 9 3.303 9 3.6v4.8c0 .297 0 .459-.01.575l-.001.014h-.014C8.86 9 8.697 9 8.4 9H3.6c-.297 0-.459 0-.575-.01l-.014-.001v-.014A8.185 8.185 0 0 1 3 8.4V3.6c0-.297 0-.459.01-.575ZM3.6 13h-.032c-.252 0-.498 0-.706.017a2.02 2.02 0 0 0-.77.201 2 2 0 0 0-.874.874 2.022 2.022 0 0 0-.201.77C1 15.07 1 15.316 1 15.568v4.864c0 .252 0 .498.017.706.019.229.063.499.201.77a2 2 0 0 0 .874.874c.271.138.541.182.77.201.208.017.454.017.706.017h4.864c.252 0 .498 0 .706-.017.229-.019.499-.063.77-.201a2 2 0 0 0 .874-.874c.138-.271.182-.541.201-.77.017-.208.017-.454.017-.706v-4.864c0-.252 0-.498-.017-.706a2.022 2.022 0 0 0-.201-.77 2 2 0 0 0-.874-.874 2.02 2.02 0 0 0-.77-.201C8.93 13 8.684 13 8.432 13H3.6Zm-.59 2.025.001-.014h.014C3.14 15 3.303 15 3.6 15h4.8c.297 0 .459 0 .575.01l.014.002v.013c.01.116.011.278.011.575v4.8c0 .297 0 .459-.01.575l-.001.014h-.014C8.86 21 8.697 21 8.4 21H3.6c-.297 0-.459 0-.575-.01l-.014-.001v-.014A8.187 8.187 0 0 1 3 20.4v-4.8c0-.296 0-.459.01-.575ZM15.568 13h4.864c.252 0 .498 0 .706.017.229.019.499.063.77.201a2 2 0 0 1 .874.874c.138.271.182.541.201.77.017.208.017.454.017.706v4.864c0 .252 0 .498-.017.706a2.022 2.022 0 0 1-.201.77 2 2 0 0 1-.874.874 2.022 2.022 0 0 1-.77.201c-.208.017-.454.017-.706.017h-4.864c-.252 0-.498 0-.706-.017a2.022 2.022 0 0 1-.77-.201 2 2 0 0 1-.874-.874 2.02 2.02 0 0 1-.201-.77C13 20.93 13 20.684 13 20.432v-4.864c0-.252 0-.498.017-.706a2.02 2.02 0 0 1 .201-.77 2 2 0 0 1 .874-.874 2.02 2.02 0 0 1 .77-.201c.208-.017.454-.017.706-.017Zm-.556 2.011-.002.014c-.01.116-.01.278-.01.575v4.8c0 .297 0 .459.01.575l.002.014h.013c.116.01.278.011.575.011h4.8c.297 0 .459 0 .575-.01l.014-.001v-.014c.01-.116.011-.279.011-.575v-4.8c0-.296 0-.459-.01-.575l-.001-.014h-.014A8.207 8.207 0 0 0 20.4 15h-4.8c-.296 0-.459 0-.575.01l-.014.002Z"
    clip-rule="evenodd"
  />
</svg>
