<svg xmlns="http://www.w3.org/2000/svg" width="28" height="28" fill="none">
  <path
    fill="#545C6B"
    fill-rule="evenodd"
    d="M3.907 1.583h6.186c.257 0 .494 0 .691.016.214.018.447.057.677.175.33.168.597.435.765.765.117.23.157.463.174.676.017.198.017.434.017.692v6.186c0 .257 0 .493-.017.691a1.773 1.773 0 0 1-.174.677 1.75 1.75 0 0 1-.765.765c-.23.117-.463.157-.677.174a8.984 8.984 0 0 1-.691.016H3.907c-.257 0-.494 0-.692-.016a1.773 1.773 0 0 1-.676-.174 1.75 1.75 0 0 1-.765-.765 1.774 1.774 0 0 1-.175-.677c-.016-.198-.016-.434-.016-.691V3.907c0-.258 0-.494.016-.692.018-.213.058-.446.175-.676a1.75 1.75 0 0 1 .765-.765c.23-.118.463-.157.676-.175.198-.016.435-.016.692-.016Zm-.693 1.53h.002-.002Zm.003-.001a.628.628 0 0 1 .12-.018c.13-.01.304-.011.596-.011h6.134c.292 0 .466 0 .595.011a.628.628 0 0 1 .121.018.25.25 0 0 1 .105.104.62.62 0 0 1 .018.121c.01.13.01.304.01.596v6.133c0 .293 0 .467-.01.596a.62.62 0 0 1-.018.12.25.25 0 0 1-.105.105.62.62 0 0 1-.12.018c-.13.01-.304.011-.596.011H3.933c-.292 0-.466 0-.595-.01a.619.619 0 0 1-.121-.019.25.25 0 0 1-.105-.104.628.628 0 0 1-.018-.12 8.342 8.342 0 0 1-.01-.597V3.933c0-.292 0-.467.01-.596a.628.628 0 0 1 .018-.12.25.25 0 0 1 .105-.105Zm-.104.102v.001-.001Zm0 7.572v-.002.002Zm.101.1.002.001h-.002Zm7.572 0-.002.001h.002Zm.1-.1.002-.002-.001.002Zm0-7.572.002.001-.001-.001Zm-.102-.102h.002-.002ZM3.907 15.583h6.186c.257 0 .494 0 .691.016.214.018.447.057.677.175.33.168.597.435.765.764.117.23.157.464.174.677.017.198.017.434.017.692v6.186c0 .257 0 .494-.017.691a1.773 1.773 0 0 1-.174.677 1.75 1.75 0 0 1-.765.765c-.23.117-.463.157-.677.174a8.984 8.984 0 0 1-.691.016H3.907c-.257 0-.494 0-.692-.016a1.773 1.773 0 0 1-.676-.174 1.75 1.75 0 0 1-.765-.765 1.774 1.774 0 0 1-.175-.677c-.016-.197-.016-.434-.016-.691v-6.186c0-.258 0-.494.016-.692.018-.213.058-.446.175-.677a1.75 1.75 0 0 1 .765-.764c.23-.118.463-.157.676-.175.198-.016.435-.016.692-.016Zm-.693 1.53h.002-.002Zm.003-.001a.638.638 0 0 1 .12-.018c.13-.01.304-.011.596-.011h6.134c.292 0 .466 0 .595.011a.638.638 0 0 1 .121.018.25.25 0 0 1 .105.105.62.62 0 0 1 .018.12c.01.13.01.304.01.596v6.133c0 .293 0 .467-.01.596a.62.62 0 0 1-.018.12.25.25 0 0 1-.105.105.62.62 0 0 1-.12.018c-.13.01-.304.011-.596.011H3.933c-.292 0-.466 0-.595-.01a.62.62 0 0 1-.121-.018.25.25 0 0 1-.105-.105.628.628 0 0 1-.018-.12 8.342 8.342 0 0 1-.01-.597v-6.133c0-.292 0-.467.01-.596a.628.628 0 0 1 .018-.12.25.25 0 0 1 .105-.105Zm-.104.102v.001-.001Zm0 7.572v-.002.002Zm.101.1.002.001h-.002Zm7.572 0-.002.001h.002Zm.1-.1.002-.002-.001.002Zm0-7.572.002.001-.001-.001Zm-.102-.102h.002-.002ZM17.907 15.583h6.186c.257 0 .494 0 .692.016.213.018.446.057.676.175.33.168.597.435.765.764.117.23.157.464.175.677.016.198.016.434.016.692v6.186c0 .257 0 .494-.017.691a1.773 1.773 0 0 1-.174.677 1.75 1.75 0 0 1-.765.765c-.23.117-.463.157-.676.174a8.984 8.984 0 0 1-.692.016h-6.186c-.257 0-.494 0-.692-.016a1.773 1.773 0 0 1-.676-.174 1.75 1.75 0 0 1-.765-.765 1.775 1.775 0 0 1-.175-.677c-.016-.197-.016-.434-.016-.691v-6.186c0-.258 0-.494.016-.692.018-.213.058-.446.175-.677a1.75 1.75 0 0 1 .765-.764c.23-.118.463-.157.676-.175.198-.016.435-.016.692-.016Zm-.693 1.53h.002-.002Zm.003-.001a.638.638 0 0 1 .12-.018c.13-.01.304-.011.596-.011h6.134c.292 0 .466 0 .595.011a.638.638 0 0 1 .121.018.25.25 0 0 1 .105.105.62.62 0 0 1 .017.12c.011.13.012.304.012.596v6.133c0 .293 0 .467-.012.596a.62.62 0 0 1-.017.12.25.25 0 0 1-.105.105.62.62 0 0 1-.12.018c-.13.01-.304.011-.596.011h-6.134c-.292 0-.466 0-.595-.01a.62.62 0 0 1-.121-.018.25.25 0 0 1-.105-.105.62.62 0 0 1-.017-.12 8.3 8.3 0 0 1-.012-.597v-6.133c0-.292 0-.467.012-.596a.62.62 0 0 1 .017-.12.25.25 0 0 1 .105-.105Zm-.104.102v.001-.001Zm0 7.572v-.002.002Zm.101.1.002.001h-.002Zm7.572 0-.002.001h.002Zm.1-.1.002-.002-.001.002Zm0-7.572.002.001-.001-.001Zm-.102-.102h.002-.002ZM21 1.583a.75.75 0 0 1 .75.75V6.25h3.917a.75.75 0 0 1 0 1.5H21.75v3.916a.75.75 0 1 1-1.5 0V7.75h-3.917a.75.75 0 0 1 0-1.5h3.917V2.333a.75.75 0 0 1 .75-.75Z"
    clip-rule="evenodd"
  />
</svg>
