<svg xmlns="http://www.w3.org/2000/svg" width="16" height="16" fill="none">
  <path
    fill="#545C6B"
    fill-rule="evenodd"
    d="M8.157 2.449c-.372-.106-.793-.115-2.024-.115H2.666a.333.333 0 0 0 0 .666h6.552a3 3 0 0 0-1.06-.551ZM6.27.334c1.04 0 1.76-.001 2.435.192a5 5 0 0 1 1.65.824c.559.425.99 1 1.614 1.833l.083.11.08.107a1 1 0 0 1-.8 1.6H2.666a2.333 2.333 0 0 1 0-4.666h3.605Z"
    clip-rule="evenodd"
  />
  <path
    fill="#545C6B"
    fill-rule="evenodd"
    d="M2.333 2.667a1 1 0 1 0-2 0V8.31c0 1.083 0 1.957.058 2.665.06.73.185 1.37.487 1.962a5 5 0 0 0 2.185 2.185c.592.302 1.233.427 1.961.487.708.058 1.582.058 2.666.058h1.797c1.091 0 1.835 0 2.473-.17a5 5 0 0 0 3.536-3.536c.171-.638.17-1.383.17-2.473v-.309c0-1.09.001-1.835-.17-2.473A5 5 0 0 0 11.96 3.17C11.322 3 10.579 3 9.488 3H8a1 1 0 1 0 0 2h1.333c1.304 0 1.76.009 2.11.102a3 3 0 0 1 1.783 1.333 3.001 3.001 0 0 0 0 5.798 3 3 0 0 1-1.783 1.332c-.35.093-.806.102-2.11.102h-1.6c-1.137 0-1.929-.001-2.546-.051-.605-.05-.953-.142-1.216-.276a3 3 0 0 1-1.311-1.311c-.134-.264-.226-.611-.276-1.216-.05-.617-.05-1.41-.05-2.546l-.001-5.6Zm11.33 7.608c.003-.254.003-.562.003-.942 0-.38 0-.687-.004-.94a1 1 0 0 0 0 1.882Z"
    clip-rule="evenodd"
  />
</svg>
