<svg xmlns="http://www.w3.org/2000/svg" width="16" height="16" fill="none">
  <path
    fill="#545C6B"
    fill-rule="evenodd"
    d="M8.26 2.088c-.435-.124-.917-.13-2.127-.13H2.666a.708.708 0 1 0 0 1.417h7.405c-.283-.356-.478-.563-.698-.73a3.375 3.375 0 0 0-1.113-.557ZM6.232.708c1.079 0 1.748 0 2.371.178a4.625 4.625 0 0 1 1.526.763c.516.392.918.927 1.565 1.79l.059.08.08.106a.625.625 0 0 1-.5 1H2.666a1.958 1.958 0 1 1 0-3.916H6.232Z"
    clip-rule="evenodd"
  />
  <path
    fill="#545C6B"
    fill-rule="evenodd"
    d="M1.958 2.667a.625.625 0 1 0-1.25 0v5.628c0 1.096 0 1.957.057 2.65.057.705.177 1.29.447 1.821a4.625 4.625 0 0 0 2.021 2.022c.531.27 1.116.39 1.822.447.692.057 1.554.057 2.65.057h1.74c1.133 0 1.83 0 2.418-.158a4.625 4.625 0 0 0 3.27-3.27c.159-.59.159-1.286.158-2.42v-.222c0-1.133 0-1.83-.157-2.419a4.625 4.625 0 0 0-3.27-3.27c-.59-.158-1.286-.158-2.42-.158H8a.625.625 0 1 0 0 1.25h1.333c1.28 0 1.798.005 2.207.115a3.375 3.375 0 0 1 2.248 1.977 2.625 2.625 0 0 0 0 5.233 3.375 3.375 0 0 1-2.248 1.977c-.41.11-.927.115-2.207.115h-1.6c-1.13 0-1.94 0-2.576-.053-.629-.051-1.031-.15-1.356-.315a3.374 3.374 0 0 1-1.475-1.475c-.166-.325-.264-.728-.316-1.356-.051-.636-.052-1.446-.052-2.576v-5.6Zm12.07 8.042c.012-.334.013-.77.013-1.376 0-.606 0-1.04-.014-1.374H14a1.375 1.375 0 1 0 0 2.75h.027Z"
    clip-rule="evenodd"
  />
</svg>
