<svg xmlns="http://www.w3.org/2000/svg" width="24" height="24" fill="none">
  <path
    fill="#545C6B"
    fill-rule="evenodd"
    d="M10.467 4.417c1.217 0 1.679.006 2.092.124.388.111.752.293 1.073.537.287.218.532.51 1.034 1.172H5.327a.917.917 0 0 1 .007-1.833h5.133Zm-7.55.916a2.417 2.417 0 0 1 2.417-2.416h5.246c1.065 0 1.75 0 2.391.182a4.75 4.75 0 0 1 1.567.784c.531.402.942.951 1.581 1.803l.068.09.395.528c.014 0 .027.002.04.003.713.058 1.317.18 1.868.46a4.75 4.75 0 0 1 2.076 2.076c.241.474.365.986.432 1.573H19.5a3.25 3.25 0 0 0 0 6.5h1.498c-.067.588-.19 1.1-.432 1.574a4.75 4.75 0 0 1-2.076 2.076c-.551.28-1.155.402-1.868.46-.698.057-1.563.057-2.655.057h-3.933c-1.092 0-1.958 0-2.655-.057-.714-.058-1.317-.18-1.868-.46a4.75 4.75 0 0 1-2.076-2.076c-.281-.551-.403-1.155-.461-1.869-.057-.697-.057-1.563-.057-2.655V5.333Zm18.16 10.083c.007-.433.007-.913.007-1.448V13.365c0-.535 0-1.015-.007-1.449H19.5a1.75 1.75 0 1 0 0 3.5h1.577Z"
    clip-rule="evenodd"
  />
</svg>
