<svg xmlns="http://www.w3.org/2000/svg" width="24" height="24" fill="none">
  <path
    fill="#545C6B"
    fill-rule="evenodd"
    d="M12.49 4.782c-.371-.106-.792-.115-2.023-.115H5.334a.667.667 0 1 0 0 1.333h8.824c-.3-.381-.479-.572-.678-.723a3 3 0 0 0-.99-.495Zm-1.885-2.115c1.04 0 1.76-.001 2.435.192a5 5 0 0 1 1.65.824c.559.425.99 1 1.614 1.833l.083.11.58.774a1 1 0 0 1-.8 1.6H5.334a2.667 2.667 0 0 1 0-5.333h5.271Z"
    clip-rule="evenodd"
  />
  <path
    fill="#545C6B"
    fill-rule="evenodd"
    d="M4.667 5.333a1 1 0 0 0-2 0v8.643c0 1.084 0 1.958.058 2.666.06.729.185 1.37.487 1.961a5 5 0 0 0 2.185 2.185c.592.302 1.233.428 1.961.488.708.057 1.582.057 2.666.057h3.953c1.083 0 1.957 0 2.665-.057.73-.06 1.37-.186 1.962-.488a5 5 0 0 0 2.185-2.185c.301-.592.427-1.232.487-1.961.058-.708.058-1.582.058-2.666v-.619c0-1.083 0-1.958-.058-2.666-.06-.728-.186-1.369-.487-1.96a5 5 0 0 0-2.185-2.186c-.593-.302-1.233-.428-1.962-.487C15.934 6 15.06 6 13.977 6H12a1 1 0 1 0 0 2h1.934c1.136 0 1.929 0 2.545.051.606.05.953.142 1.217.276a3 3 0 0 1 1.31 1.311c.075.145.136.316.184.542a3.5 3.5 0 0 0 0 6.973c-.048.226-.11.397-.183.542a3 3 0 0 1-1.311 1.311c-.264.135-.611.227-1.217.276-.616.05-1.409.051-2.545.051h-3.867c-1.137 0-1.929 0-2.546-.05-.605-.05-.953-.142-1.216-.277a3 3 0 0 1-1.311-1.31c-.134-.264-.226-.612-.276-1.217-.05-.617-.051-1.409-.051-2.546v-8.6Zm14.663 9.824c.004-.359.004-.763.004-1.224V13.4c0-.46 0-.865-.004-1.224a1.5 1.5 0 0 0 0 2.98Z"
    clip-rule="evenodd"
  />
</svg>
