<svg xmlns="http://www.w3.org/2000/svg" width="24" height="24" fill="none">
  <path
    fill="#545C6B"
    fill-rule="evenodd"
    d="M12.961 2.635c-.455-.13-.959-.135-2.161-.135H4a1.5 1.5 0 1 0 0 3H16l-.48-.64c-.721-.962-1.027-1.362-1.404-1.648a3.502 3.502 0 0 0-1.155-.577ZM1.5 4A2.5 2.5 0 0 1 4 1.5h6.883c1.094 0 1.746 0 2.353.173a4.5 4.5 0 0 1 1.484.742c.502.381.894.903 1.55 1.779l.05.066.937 1.25c.374.008.709.021 1.01.046.699.057 1.266.175 1.776.434a4.5 4.5 0 0 1 1.966 1.967c.26.51.378 1.077.435 1.775.056.688.056 1.544.056 2.645v3.246c0 1.1 0 1.958-.056 2.645-.057.698-.175 1.265-.434 1.775a4.5 4.5 0 0 1-1.967 1.966c-.51.26-1.077.378-1.775.435-.688.056-1.544.056-2.645.056H8.377c-1.1 0-1.958 0-2.645-.056-.698-.057-1.265-.175-1.775-.434a4.5 4.5 0 0 1-1.967-1.967c-.26-.51-.377-1.077-.434-1.775-.056-.688-.056-1.544-.056-2.645V4Zm16.686 2.553c-.608-.05-1.373-.053-2.412-.053H4A2.489 2.489 0 0 1 2.5 6v9.6c0 1.128 0 1.945.053 2.586.052.637.152 1.057.328 1.403a3.5 3.5 0 0 0 1.53 1.53c.346.176.766.276 1.403.328.641.053 1.458.053 2.586.053h7.2c1.128 0 1.945 0 2.586-.053.637-.052 1.057-.152 1.403-.328a3.5 3.5 0 0 0 1.53-1.53c.176-.346.276-.766.328-1.402.017-.21.029-.437.037-.687H21a3.5 3.5 0 1 1 0-7h.484c-.008-.25-.02-.478-.037-.686-.052-.637-.152-1.057-.328-1.403a3.5 3.5 0 0 0-1.53-1.53c-.346-.176-.766-.276-1.402-.328ZM21.5 11.5H21a2.5 2.5 0 0 0 0 5h.499l.001-.9v-3.2l-.001-.9Z"
    clip-rule="evenodd"
  />
</svg>
