<svg xmlns="http://www.w3.org/2000/svg" width="24" height="24" fill="none">
  <path
    fill="#545C6B"
    fill-rule="evenodd"
    d="M12.893 2.875c-.414-.118-.876-.125-2.093-.125H4a1.25 1.25 0 1 0 0 2.5h11.5l-.18-.24c-.73-.973-1.013-1.339-1.356-1.599a3.25 3.25 0 0 0-1.072-.536Zm-1.98-1.625c1.065 0 1.75 0 2.391.183a4.75 4.75 0 0 1 1.567.783c.531.403.942.952 1.581 1.803l.068.091 1.08 1.44a.75.75 0 0 1-.6 1.2H4a2.75 2.75 0 0 1 0-5.5h6.913Z"
    clip-rule="evenodd"
  />
  <path
    fill="#545C6B"
    fill-rule="evenodd"
    d="M2.75 4a.75.75 0 0 0-1.5 0v11.633c0 1.092 0 1.958.057 2.655.058.714.18 1.317.46 1.869a4.75 4.75 0 0 0 2.077 2.075c.55.281 1.154.403 1.868.461.697.057 1.563.057 2.655.057h7.266c1.092 0 1.958 0 2.655-.057.714-.058 1.317-.18 1.869-.46a4.75 4.75 0 0 0 2.075-2.076c.281-.552.403-1.155.461-1.869.057-.697.057-1.563.057-2.655v-3.266c0-1.092 0-1.958-.057-2.655-.058-.714-.18-1.317-.46-1.868a4.75 4.75 0 0 0-2.076-2.076c-.552-.281-1.155-.403-1.869-.461-.697-.057-1.563-.057-2.655-.057H12a.75.75 0 0 0 0 1.5h3.6c1.133 0 1.937 0 2.566.052.62.05 1.005.147 1.31.302a3.25 3.25 0 0 1 1.42 1.42c.155.305.251.69.302 1.31.01.13.02.269.026.416H21a3.75 3.75 0 0 0 0 7.5h.224c-.007.147-.015.285-.026.416-.05.62-.147 1.005-.302 1.31a3.25 3.25 0 0 1-1.42 1.42c-.305.155-.69.251-1.31.302-.63.051-1.433.052-2.566.052H8.4c-1.132 0-1.937 0-2.566-.052-.62-.05-1.005-.147-1.31-.302a3.25 3.25 0 0 1-1.42-1.42c-.155-.305-.251-.69-.302-1.31-.051-.63-.052-1.433-.052-2.566V4Zm18.5 12.25v-4.5H21a2.25 2.25 0 0 0 0 4.5h.25Z"
    clip-rule="evenodd"
  />
</svg>
