<svg xmlns="http://www.w3.org/2000/svg" width="28" height="28" fill="none">
  <path
    fill="#545C6B"
    fill-rule="evenodd"
    d="M15.26 3.088c-.435-.124-.917-.13-2.127-.13H4.666c-.943 0-1.708.765-1.708 1.708v.002c0 .943.765 1.707 1.708 1.707h9.313a.64.64 0 0 1 .02 0h4.584l-.83-1.106c-.726-.968-1.02-1.35-1.38-1.624a3.375 3.375 0 0 0-1.113-.557ZM4.666 1.708a2.958 2.958 0 0 0-2.958 2.957V19.294c0 1.097 0 1.958.057 2.65.057.706.177 1.292.447 1.822a4.625 4.625 0 0 0 2.021 2.021c.53.27 1.116.39 1.822.448.692.056 1.554.056 2.65.056h10.59c1.096 0 1.957 0 2.65-.056.705-.058 1.29-.177 1.821-.448a4.624 4.624 0 0 0 2.021-2.02c.27-.531.39-1.117.448-1.822.056-.693.056-1.554.056-2.65v-5.923c0-1.097 0-1.958-.056-2.65-.058-.706-.177-1.291-.448-1.822a4.625 4.625 0 0 0-2.021-2.021c-.53-.27-1.116-.39-1.822-.448a24.264 24.264 0 0 0-1.798-.055l-1.393-1.857-.06-.08c-.646-.863-1.048-1.398-1.564-1.79a4.625 4.625 0 0 0-1.526-.763c-.623-.178-1.292-.178-2.371-.177H4.666ZM2.958 19.268V7.082a2.945 2.945 0 0 0 1.708.543h15.172c.84.002 1.482.01 2.005.052.628.052 1.03.15 1.356.316.635.323 1.15.84 1.474 1.475.166.325.265.727.316 1.355.031.387.044.838.049 1.386H24.5a4.125 4.125 0 0 0 0 8.25h.538c-.005.547-.018.998-.05 1.384-.05.628-.149 1.03-.314 1.356a3.375 3.375 0 0 1-1.475 1.475c-.326.165-.728.264-1.356.315-.636.052-1.446.052-2.577.052H8.733c-1.13 0-1.94 0-2.576-.052-.629-.051-1.031-.15-1.356-.315a3.375 3.375 0 0 1-1.475-1.475c-.166-.325-.264-.728-.316-1.356-.052-.636-.052-1.446-.052-2.576Zm22.083-.058v-5.75H24.5a2.875 2.875 0 0 0 0 5.75h.541Z"
    clip-rule="evenodd"
  />
</svg>
